<svg width="285" height="218" viewBox="0 0 285 218" fill="none" xmlns="http://www.w3.org/2000/svg">
<path d="M129.732 8.38962C134.684 -2.6205 150.316 -2.6205 155.268 8.38962L158.077 14.6358C161.837 22.996 172.484 25.5471 179.624 19.7989L189.276 12.0298C198.532 4.57818 212.132 12.3029 210.473 24.0697V24.0697C209.122 33.6504 218.261 41.3423 227.47 38.3752L240.367 34.2201C250.834 30.8479 259.333 43.0762 252.525 51.7116V51.7116C246.773 59.0074 251.959 69.7235 261.25 69.7396L269.698 69.7542C280.785 69.7734 284.471 84.6074 274.682 89.8131V89.8131C266.387 94.2242 267.629 106.491 276.56 109.406V109.406C287.436 112.955 286.5 128.839 275.197 130.609L271.555 131.179C262.379 132.616 259.242 144.243 266.449 150.101V150.101C274.935 156.998 268.871 170.683 258.062 169.029L246.256 167.223C236.947 165.799 229.74 175.221 233.551 183.832V183.832C238.124 194.166 227.094 204.471 217.095 199.206L205 192.838C196.459 188.342 186.037 193.633 184.628 203.182L184.319 205.272C182.531 217.385 167.153 221.529 159.522 211.954L153.448 204.334C147.843 197.303 137.157 197.303 131.552 204.334L125.478 211.954C117.847 221.529 102.469 217.385 100.681 205.272L100.372 203.182C98.9628 193.633 88.5408 188.342 80.0001 192.838L67.9055 199.206C57.9062 204.471 46.8763 194.166 51.4494 183.832V183.832C55.2602 175.221 48.0527 165.799 38.7444 167.223L26.9383 169.029C16.1292 170.683 10.0647 156.998 18.5506 150.101V150.101C25.7583 144.243 22.621 132.616 13.4448 131.179L9.80254 130.609C-1.50029 128.839 -2.43649 112.955 8.43965 109.406V109.406C17.3709 106.491 18.6132 94.2242 10.3184 89.8131V89.8131C0.529172 84.6074 4.21453 69.7734 15.3018 69.7542L23.7503 69.7396C33.0409 69.7235 38.2268 59.0074 32.4748 51.7116V51.7116C25.6666 43.0762 34.1664 30.8479 44.6331 34.2201L57.5296 38.3752C66.7389 41.3423 75.8784 33.6504 74.5273 24.0697V24.0697C72.868 12.3029 86.4678 4.57818 95.7245 12.0298L105.376 19.7989C112.516 25.5471 123.163 22.996 126.923 14.6358L129.732 8.38962Z" fill="#DCD9BF"/>
</svg>
