<svg width="318" height="248" viewBox="0 0 318 248" fill="none" xmlns="http://www.w3.org/2000/svg">
<path d="M159 0C171.436 31.3119 222.391 43.5917 257.267 23.6816C242.515 54.4345 274.005 86.5849 318 85.6815C281.693 104.129 281.693 143.871 318 162.318C274.008 161.415 242.515 193.565 257.267 224.318C222.391 204.408 171.436 216.688 159 248C146.564 216.688 95.6093 204.408 60.733 224.318C75.4854 193.568 43.9917 161.418 0 162.321C36.3067 143.871 36.3067 104.132 0 85.6844C43.9917 86.5877 75.4854 54.4374 60.733 23.6844C95.6065 43.5917 146.561 31.3119 159 0Z" fill="#B6C1F0"/>
</svg>
