<svg viewBox="0 0 24 24" height="20" width="20" fill="none" xmlns="http://www.w3.org/2000/svg">
    <path
        fill="#fff"
        d="M24 20.4c0 1.98-1.62 3.6-3.6 3.6H3.6A3.61 3.61 0 0 1 0 20.4V3.6C0 1.62 1.62 0 3.6 0h16.8C22.38 0 24 1.62 24 3.6v16.8Z"
    />
    <path
        fillRule="evenodd"
        clipRule="evenodd"
        fill="currentColor"
        d="M17 15V17H19V18H17V20H16V18H14V17H16V15H17ZM15 5C16.0529 5 16.918
    5.81731 16.9945 6.85093L17 7V13H16V7C16 6.48743 15.6146 6.06453 15.1168 6.00673L15 6H8C7.4865 6
    7.0644 6.38629 7.00672 6.88343L7 7V17C7 17.5135 7.38542 17.9356 7.88325 17.9933L8
    18H13V19H8C6.94714 19 6.08197 18.1836 6.0055 17.1492L6 17V7C6 5.94714 6.81731 5.08197 7.85093
    5.0055L8 5H15ZM14 11V12H9V11H14ZM14 8V9H9V8H14Z"
    />
</svg>
