<svg width="802" height="1079" viewBox="0 0 802 1079" fill="none" xmlns="http://www.w3.org/2000/svg">
    <rect style="--idx: 0" x="27.4408" y="71.799" width="378.89" height="126.297" rx="63.1484"
        transform="rotate(5.10525 27.4408 71.799)" fill="#92D0AB" />
    <rect style="--idx: 1" x="35.5585" y="722.239" width="378.89" height="126.297" rx="63.1484"
        transform="rotate(11.8124 35.5585 722.239)" fill="#A09D2A" />
    <rect style="--idx: 2" x="223.145" y="738.544" width="558.691" height="126.297" rx="63.1484"
        transform="rotate(-22.5679 223.145 738.544)" fill="#DCD9BF" />
    <rect style="--idx: 3" x="59.7551" y="599.133" width="433.605" height="126.297" rx="63.1484"
        transform="rotate(-6.58697 59.7551 599.133)" fill="#FA9DBC" />
    <rect style="--idx: 4" x="29.4902" y="362.549" width="390.17" height="126.297" rx="63.1484"
        transform="rotate(-17.6875 29.4902 362.549)" fill="#7FC2F4" />
    <rect style="--idx: 5" x="288.399" y="200.587" width="209.779" height="126.297" rx="63.1484"
        transform="rotate(-32.3274 288.399 200.587)" fill="#DCD9BF" />
    <rect style="--idx: 6" x="351.089" y="776.269" width="309.137" height="126.297" rx="63.1484"
        transform="rotate(17.8147 351.089 776.269)" fill="#90D3AA" />
    <rect style="--idx: 7" x="495.433" y="105.248" width="126.297" height="126.297" rx="63.1484"
        transform="rotate(17.8147 495.433 105.248)" fill="#7FC2F4" />
    <rect style="--idx: 8" x="110.478" y="823.034" width="168.396" height="168.396" rx="84.1978"
        transform="rotate(17.8147 110.478 823.034)" fill="#7FC2F4" />
    <rect style="--idx: 9" x="358.045" y="429.409" width="172.606" height="172.606" rx="86.3028"
        transform="rotate(17.8147 358.045 429.409)" fill="#A09D2A" />
    <rect style="--idx: 10" x="469.424" y="388.931" width="252.594" height="126.297" rx="63.1484"
        transform="rotate(-13.8717 469.424 388.931)" fill="#6A55A2" />
    <rect style="--idx: 11" x="301.028" y="162.081" width="126.297" height="126.297" rx="63.1484"
        fill="#F486C9" />
    <rect style="--idx: 12" x="383.121" y="275.749" width="231.544" height="126.297" rx="63.1484"
        fill="#FF5B2B" />
    <rect style="--idx: 13" x="464.618" y="721.997" width="126.297" height="126.297" rx="63.1484"
        transform="rotate(11.2609 464.618 721.997)" fill="#FF5B2B" />
    <rect style="--idx: 14" x="163.993" y="956.402" width="366.807" height="126.297" rx="63.1484"
        transform="rotate(-13.901 163.993 956.402)" fill="#F486C9" />
    <rect style="--idx: 15" x="301.028" y="850.398" width="126.297" height="126.297" rx="63.1484"
        fill="#FF2F2F" />
    <rect style="--idx: 16" x="58.9601" y="429.75" width="178.92" height="178.92" rx="89.4602"
        transform="rotate(-22.9637 58.9601 429.75)" fill="#268040" />
    <rect style="--idx: 17" x="35.5374" y="518.351" width="401.997" height="126.297" rx="63.1484"
        transform="rotate(16.3426 35.5374 518.351)" fill="#FF5B2B" />
    <rect style="--idx: 18" x="187.362" y="244.174" width="210.495" height="210.495" rx="105.247"
        fill="#FFB615" />
    <rect style="--idx: 19" x="241.494" y="846.189" width="168.396" height="126.297" rx="63.1484"
        transform="rotate(11.2609 241.494 846.189)" fill="#6A55A2" />
    <rect style="--idx: 20" x="10.5461" y="198.05" width="328.563" height="126.297" rx="63.1484"
        transform="rotate(-37.069 10.5461 198.05)" fill="#B6C1F0" />
    <rect style="--idx: 21" x="124.214" y="187.34" width="136.822" height="136.822" rx="68.4108"
        fill="#FF2F2F" />
    <rect style="--idx: 22" x="494.684" y="699.204" width="126.297" height="324.08" rx="63.1484"
        transform="rotate(-40.7584 494.684 699.204)" fill="#268040" />
</svg>
    