<svg xmlns="http://www.w3.org/2000/svg" width="18" height="18" fill="none" viewBox="0 0 18 18">
  <path 
    fill="currentColor" 
    fillRule="evenodd" 
    clipRule="evenodd"
    d="M13.802 7.52A5.292 5.292 0 0 0 9 0a5.292 5.292 0 0 0-4.803 7.52A5.293 5.293 0 0 0 0 12.694c0 2.922 2.37 5.29 5.294 5.29h7.412A5.292 5.292 0 0 0 18 12.695c0-2.545-1.8-4.671-4.198-5.176Zm-4.195-1.6 1.84.993c.37.2.37.731 0 .931l-1.84.993a1.289 1.289 0 0 1-1.226-.001l-1.83-.992a.529.529 0 0 1 0-.93l1.83-.992a1.289 1.289 0 0 1 1.226-.002Z" 
  />
</svg>