<svg width="20" height="20" viewBox="0 0 20 20" fill="none"
    xmlns="http://www.w3.org/2000/svg">
    <path fill-rule="evenodd" clip-rule="evenodd" d="M15.2939 6.28985C15.2939 7.08635 15.1177 7.84173 14.8022 8.51921C17.2 9.02373 19 11.1496 19 13.6955C19 16.617 16.6297 18.9854 13.7058 18.9854H6.29416C3.37026 18.9854 1 16.617 1 13.6955C1 11.1497 2.79982 9.02396 5.19741 8.51931C4.88186 7.8418 4.70567 7.08639 4.70567 6.28985C4.70567 3.36834 7.07593 1 9.99979 1C12.9236 1 15.2939 3.36834 15.2939 6.28985Z" stroke="white"/>
    <path d="M12.4454 7.91444L10.6047 6.92158C10.222 6.71515 9.76094 6.71562 9.3787 6.92283L7.54845 7.91496C7.17916 8.11514 7.17916 8.64472 7.54845 8.8449L9.3787 9.83703C9.76094 10.0442 10.222 10.0447 10.6047 9.83829L12.4454 8.84542C12.8159 8.64555 12.8159 8.11432 12.4454 7.91444Z" fill="white"/>
</svg>
