<svg width="30" height="30" viewBox="0 0 30 30" fill="none"
    xmlns="http://www.w3.org/2000/svg">
    <path d="M25.12 6.94583C22.696 4.99783 18.863 4.66783 18.701 4.65383C18.445 4.63183 18.202 4.77683 18.097 5.01083C18.093 5.01883 17.879 5.63983 17.672 6.23883C20.489 6.73183 22.403 7.82583 22.505 7.88583C22.983 8.16383 23.143 8.77683 22.864 9.25383C22.679 9.57183 22.344 9.74983 22 9.74983C21.829 9.74983 21.657 9.70683 21.499 9.61483C21.471 9.59783 18.663 7.99983 15.002 7.99983C11.34 7.99983 8.531 9.59883 8.503 9.61483C8.026 9.89183 7.414 9.72883 7.137 9.25083C6.86 8.77483 7.021 8.16383 7.497 7.88583C7.599 7.82583 9.52 6.72783 12.345 6.23583C12.127 5.62983 11.907 5.01883 11.903 5.01083C11.798 4.77583 11.555 4.62783 11.299 4.65383C11.137 4.66683 7.304 4.99683 4.848 6.97183C3.564 8.15783 1 15.0918 1 21.0868C1 21.1928 1.027 21.2958 1.08 21.3878C2.851 24.4978 7.679 25.3118 8.779 25.3468C8.786 25.3478 8.792 25.3478 8.798 25.3478C8.992 25.3478 9.175 25.2548 9.29 25.0978L10.48 23.4858C7.87 22.8568 6.49 21.8678 6.407 21.8068C5.963 21.4798 5.867 20.8538 6.194 20.4088C6.52 19.9658 7.144 19.8678 7.588 20.1928C7.625 20.2168 10.172 21.9998 15 21.9998C19.847 21.9998 22.387 20.2098 22.412 20.1918C22.856 19.8698 23.482 19.9668 23.807 20.4128C24.131 20.8568 24.037 21.4788 23.595 21.8048C23.512 21.8658 22.139 22.8528 19.535 23.4818L20.71 25.0968C20.825 25.2548 21.008 25.3468 21.202 25.3468C21.209 25.3468 21.215 25.3468 21.221 25.3458C22.322 25.3108 27.15 24.4968 28.92 21.3868C28.973 21.2948 29 21.1918 29 21.0858C29 15.0918 26.436 8.15783 25.12 6.94583ZM11 18.9998C9.895 18.9998 9 17.8808 9 16.4998C9 15.1188 9.895 13.9998 11 13.9998C12.105 13.9998 13 15.1188 13 16.4998C13 17.8808 12.105 18.9998 11 18.9998ZM19 18.9998C17.895 18.9998 17 17.8808 17 16.4998C17 15.1188 17.895 13.9998 19 13.9998C20.105 13.9998 21 15.1188 21 16.4998C21 17.8808 20.105 18.9998 19 18.9998Z" fill="currentColor"/>
</svg>
