<svg width="20" height="20" viewBox="0 0 20 20" fill="none" xmlns="http://www.w3.org/2000/svg">
<path fill-rule="evenodd" clip-rule="evenodd" d="M9.11607 10L4.99995 5.8839C4.75588 5.63982 4.75588 5.24409 4.99995 5.00001C5.24403 4.75594 5.63976 4.75594 5.88384 5.00001L9.99995 9.11613L14.1161 5.00001C14.3601 4.75594 14.7559 4.75594 15 5.00001C15.244 5.24409 15.244 5.63982 15 5.8839L10.8838 10L15 14.1161C15.244 14.3602 15.244 14.7559 15 15C14.7559 15.2441 14.3601 15.2441 14.1161 15L9.99995 10.8839L5.88384 15C5.63976 15.2441 5.24403 15.2441 4.99995 15C4.75588 14.7559 4.75588 14.3602 4.99995 14.1161L9.11607 10Z" fill="#282B2D"/>
</svg>
