<svg width="63" height="30" viewBox="0 0 63 30" fill="none"
    xmlns="http://www.w3.org/2000/svg">
    <rect x="0.5" y="0.5" width="62" height="29" rx="2.5" fill="white" style="fill:white;fill-opacity:1;"/>
    <rect x="0.5" y="0.5" width="62" height="29" rx="2.5" stroke="#495CEF" style="stroke:#495CEF;stroke:color(display-p3 0.2863 0.3608 0.9373);stroke-opacity:1;"/>
    <path fill-rule="evenodd" clip-rule="evenodd" d="M18.2037 10.299L20.5013 12.6367C20.886 13.028 20.8834 13.6562 20.4957 14.0444L13.7073 20.8405H10V17.1346L16.7804 10.2959C17.1692 9.90374 17.8024 9.90102 18.1946 10.2899C18.1976 10.2929 18.2006 10.296 18.2037 10.299ZM17.7863 15.3418L15.4761 13.0317L11 17.5464V19.8405H13.2927L17.7863 15.3418ZM18.493 14.6343L19.7882 13.3377L17.4905 11L16.1802 12.3216L18.493 14.6343Z" fill="#495CEF" style="fill:#495CEF;fill:color(display-p3 0.2863 0.3608 0.9373);fill-opacity:1;"/>
    <path d="M33.78 20H28.068V11.42H33.78V12.788H29.688V14.972H33.564V16.34H29.688V18.632H33.78V20ZM39.5919 20V19.244C39.3999 19.532 39.1399 19.764 38.8119 19.94C38.4919 20.108 38.1239 20.192 37.7079 20.192C37.1879 20.192 36.7119 20.056 36.2799 19.784C35.8559 19.512 35.5159 19.136 35.2599 18.656C35.0039 18.168 34.8759 17.608 34.8759 16.976C34.8759 16.344 35.0039 15.788 35.2599 15.308C35.5239 14.828 35.8719 14.452 36.3039 14.18C36.7359 13.908 37.2119 13.772 37.7319 13.772C38.1479 13.772 38.5119 13.86 38.8239 14.036C39.1359 14.204 39.3879 14.436 39.5799 14.732V11.36H41.1639V20H39.5919ZM36.5199 16.976C36.5199 17.528 36.6639 17.984 36.9519 18.344C37.2479 18.696 37.6359 18.872 38.1159 18.872C38.4599 18.872 38.7639 18.776 39.0279 18.584C39.2919 18.384 39.4759 18.124 39.5799 17.804V17.024C39.5799 16.432 39.4399 15.964 39.1599 15.62C38.8799 15.268 38.5159 15.092 38.0679 15.092C37.6039 15.092 37.2279 15.272 36.9399 15.632C36.6599 15.984 36.5199 16.432 36.5199 16.976ZM44.6277 11.996C44.6277 12.252 44.5357 12.472 44.3517 12.656C44.1677 12.84 43.9357 12.932 43.6557 12.932C43.3757 12.932 43.1437 12.84 42.9597 12.656C42.7757 12.472 42.6837 12.252 42.6837 11.996C42.6837 11.732 42.7757 11.512 42.9597 11.336C43.1437 11.152 43.3757 11.06 43.6557 11.06C43.9357 11.06 44.1677 11.152 44.3517 11.336C44.5357 11.512 44.6277 11.732 44.6277 11.996ZM44.4477 20H42.8637V13.964H44.4477V20ZM49.6967 20H48.2687C47.2047 20 46.6727 19.452 46.6727 18.356V15.236H45.7127V13.964H46.6727V12.368H48.2567V13.964H49.6367V15.236H48.2567V18.08C48.2567 18.496 48.4487 18.704 48.8327 18.704H49.6967V20Z" fill="#495CEF" style="fill:#495CEF;fill:color(display-p3 0.2863 0.3608 0.9373);fill-opacity:1;"/>
</svg>
