<svg width="341" height="450" viewBox="0 0 341 450" fill="none"
    xmlns="http://www.w3.org/2000/svg">
    <mask id="mask0_2548_101" style="mask-type:alpha" maskUnits="userSpaceOnUse" x="0" y="0" width="341" height="450">
        <rect width="341" height="450" fill="#282B2D"/>
    </mask>
    <g mask="url(#mask0_2548_101)">
        <rect x="-11.3633" y="-15" width="363.733" height="480" fill="#282B2D"/>
        <rect y="0.0273438" width="340.67" height="450.883" fill="#FA9DBC"/>
        <path d="M141.877 430.826H136.729V422.246H137.689V429.974H141.877V430.826ZM149.584 430.826H144.208V422.246H149.584V423.086H145.168V426.014H149.368V426.854H145.168V429.986H149.584V430.826ZM151.378 429.446L152.062 428.762C152.822 429.69 153.742 430.154 154.822 430.154C155.494 430.154 156.03 429.998 156.43 429.686C156.838 429.374 157.042 428.958 157.042 428.438C157.042 427.99 156.866 427.646 156.514 427.406C156.17 427.158 155.582 426.966 154.75 426.83C153.662 426.654 152.882 426.39 152.41 426.038C151.938 425.678 151.702 425.17 151.702 424.514C151.702 424.034 151.83 423.61 152.086 423.242C152.35 422.874 152.71 422.586 153.166 422.378C153.63 422.162 154.154 422.054 154.738 422.054C156.042 422.054 157.13 422.55 158.002 423.542L157.33 424.214C156.954 423.766 156.558 423.438 156.142 423.23C155.734 423.022 155.266 422.918 154.738 422.918C154.106 422.918 153.606 423.058 153.238 423.338C152.878 423.618 152.698 424.006 152.698 424.502C152.698 424.886 152.862 425.186 153.19 425.402C153.518 425.618 154.066 425.786 154.834 425.906C155.978 426.082 156.794 426.366 157.282 426.758C157.778 427.142 158.026 427.698 158.026 428.426C158.026 428.93 157.89 429.378 157.618 429.77C157.346 430.162 156.966 430.47 156.478 430.694C155.998 430.91 155.446 431.018 154.822 431.018C153.438 431.018 152.29 430.494 151.378 429.446ZM159.677 429.446L160.361 428.762C161.121 429.69 162.041 430.154 163.121 430.154C163.793 430.154 164.329 429.998 164.729 429.686C165.137 429.374 165.341 428.958 165.341 428.438C165.341 427.99 165.165 427.646 164.813 427.406C164.469 427.158 163.881 426.966 163.049 426.83C161.961 426.654 161.181 426.39 160.709 426.038C160.237 425.678 160.001 425.17 160.001 424.514C160.001 424.034 160.129 423.61 160.385 423.242C160.649 422.874 161.009 422.586 161.465 422.378C161.929 422.162 162.453 422.054 163.037 422.054C164.341 422.054 165.429 422.55 166.301 423.542L165.629 424.214C165.253 423.766 164.857 423.438 164.441 423.23C164.033 423.022 163.565 422.918 163.037 422.918C162.405 422.918 161.905 423.058 161.537 423.338C161.177 423.618 160.997 424.006 160.997 424.502C160.997 424.886 161.161 425.186 161.489 425.402C161.817 425.618 162.365 425.786 163.133 425.906C164.277 426.082 165.093 426.366 165.581 426.758C166.077 427.142 166.325 427.698 166.325 428.426C166.325 428.93 166.189 429.378 165.917 429.77C165.645 430.162 165.265 430.47 164.777 430.694C164.297 430.91 163.745 431.018 163.121 431.018C161.737 431.018 160.589 430.494 159.677 429.446ZM172.602 431.018C172.002 431.018 171.446 430.906 170.934 430.682C170.43 430.458 169.986 430.146 169.602 429.746C169.226 429.338 168.934 428.862 168.726 428.318C168.518 427.766 168.414 427.17 168.414 426.53C168.414 425.89 168.518 425.298 168.726 424.754C168.934 424.21 169.226 423.738 169.602 423.338C169.986 422.93 170.43 422.614 170.934 422.39C171.446 422.166 172.002 422.054 172.602 422.054C173.202 422.054 173.758 422.166 174.27 422.39C174.782 422.614 175.226 422.93 175.602 423.338C175.986 423.738 176.282 424.21 176.49 424.754C176.698 425.298 176.802 425.89 176.802 426.53C176.802 427.17 176.698 427.766 176.49 428.318C176.282 428.862 175.986 429.338 175.602 429.746C175.226 430.146 174.782 430.458 174.27 430.682C173.758 430.906 173.202 431.018 172.602 431.018ZM172.602 430.154C173.234 430.154 173.79 429.998 174.27 429.686C174.75 429.374 175.126 428.946 175.398 428.402C175.67 427.85 175.806 427.226 175.806 426.53C175.806 425.826 175.67 425.206 175.398 424.67C175.126 424.126 174.75 423.698 174.27 423.386C173.79 423.074 173.234 422.918 172.602 422.918C171.978 422.918 171.426 423.074 170.946 423.386C170.466 423.698 170.09 424.126 169.818 424.67C169.546 425.206 169.41 425.826 169.41 426.53C169.41 427.226 169.546 427.85 169.818 428.402C170.09 428.946 170.466 429.374 170.946 429.686C171.426 429.998 171.978 430.154 172.602 430.154ZM180.38 430.826H179.456V422.246H180.488L185.108 429.422V422.246H186.032V430.826H185L180.38 423.65V430.826ZM195.036 431.018C194.412 431.018 193.88 430.838 193.44 430.478C193 430.118 192.66 429.606 192.42 428.942C192.188 428.27 192.072 427.466 192.072 426.53C192.072 425.594 192.188 424.794 192.42 424.13C192.66 423.458 193 422.946 193.44 422.594C193.88 422.234 194.412 422.054 195.036 422.054C195.66 422.054 196.192 422.234 196.632 422.594C197.072 422.946 197.408 423.458 197.64 424.13C197.88 424.794 198 425.594 198 426.53C198 427.466 197.88 428.27 197.64 428.942C197.408 429.606 197.072 430.118 196.632 430.478C196.192 430.838 195.66 431.018 195.036 431.018ZM195.036 430.214C195.676 430.214 196.168 429.894 196.512 429.254C196.856 428.614 197.028 427.706 197.028 426.53C197.028 425.354 196.856 424.45 196.512 423.818C196.168 423.178 195.676 422.858 195.036 422.858C194.404 422.858 193.912 423.178 193.56 423.818C193.216 424.45 193.044 425.354 193.044 426.53C193.044 427.706 193.216 428.614 193.56 429.254C193.912 429.894 194.404 430.214 195.036 430.214ZM202.58 422.246H203.504V430.826H202.544V423.278L200.492 425.006V423.974L202.58 422.246Z" fill="black"/>
        <path d="M66.5051 241.375H59.6251V212.775H79.7051V218.495H66.5051V224.135H78.9451V229.855H66.5051V241.375ZM89.9685 241.375H83.2085V212.575H89.9685V241.375ZM111.868 234.655L115.148 238.695C114.135 239.735 112.788 240.548 111.108 241.135C109.455 241.722 107.668 242.015 105.748 242.015C103.268 242.015 101.108 241.562 99.2679 240.655C97.4279 239.748 95.9879 238.482 94.9479 236.855C93.9345 235.228 93.4279 233.348 93.4279 231.215C93.4279 229.055 93.9212 227.162 94.9079 225.535C95.8945 223.882 97.2279 222.602 98.9079 221.695C100.615 220.788 102.508 220.335 104.588 220.335C106.641 220.335 108.468 220.788 110.068 221.695C111.668 222.575 112.921 223.815 113.828 225.415C114.735 226.988 115.188 228.828 115.188 230.935V233.135H100.468C100.841 234.388 101.521 235.335 102.508 235.975C103.521 236.588 104.748 236.895 106.188 236.895C108.348 236.895 110.241 236.148 111.868 234.655ZM104.548 225.415C103.508 225.415 102.615 225.748 101.868 226.415C101.121 227.055 100.615 227.988 100.348 229.215H108.548C108.361 228.042 107.921 227.122 107.228 226.455C106.561 225.762 105.668 225.415 104.548 225.415ZM123.035 241.375H115.475L123.115 230.775L116.075 220.975H123.595L127.355 226.815L131.155 220.975H138.715L131.635 230.775L139.235 241.375H131.675L127.355 234.775L123.035 241.375ZM169.618 241.375H149.938V212.775H156.818V235.495H169.618V241.375ZM180.217 242.015C178.644 242.015 177.244 241.735 176.017 241.175C174.817 240.588 173.884 239.788 173.217 238.775C172.55 237.762 172.217 236.575 172.217 235.215C172.217 233.162 173.137 231.535 174.977 230.335C176.817 229.135 179.324 228.535 182.497 228.535H186.217C186.084 227.495 185.617 226.708 184.817 226.175C184.017 225.642 182.977 225.375 181.697 225.375C180.63 225.375 179.617 225.562 178.657 225.935C177.697 226.308 176.857 226.842 176.137 227.535L172.937 223.535C174.004 222.548 175.337 221.775 176.937 221.215C178.564 220.628 180.27 220.335 182.057 220.335C184.164 220.335 186.004 220.668 187.577 221.335C189.177 222.002 190.417 222.988 191.297 224.295C192.204 225.575 192.657 227.162 192.657 229.055V241.375H186.617V239.255C185.897 240.135 184.99 240.815 183.897 241.295C182.804 241.775 181.577 242.015 180.217 242.015ZM181.977 237.135C182.91 237.135 183.75 236.908 184.497 236.455C185.27 235.975 185.857 235.335 186.257 234.535V232.615H182.897C181.697 232.615 180.75 232.828 180.057 233.255C179.39 233.682 179.057 234.242 179.057 234.935C179.057 235.602 179.324 236.135 179.857 236.535C180.417 236.935 181.124 237.135 181.977 237.135ZM210.84 220.975H217.6L208.32 242.935C207.44 245.015 206.293 246.562 204.88 247.575C203.493 248.615 201.746 249.135 199.64 249.135H196.6V243.695H199.16C199.933 243.695 200.586 243.535 201.12 243.215C201.68 242.895 202.106 242.362 202.4 241.615L202.48 241.375L193.8 220.975H200.72L205.76 234.775L210.84 220.975ZM229.598 242.015C227.305 242.015 225.278 241.562 223.518 240.655C221.785 239.722 220.425 238.442 219.438 236.815C218.478 235.162 217.998 233.282 217.998 231.175C217.998 229.042 218.478 227.162 219.438 225.535C220.425 223.908 221.785 222.642 223.518 221.735C225.278 220.802 227.305 220.335 229.598 220.335C231.892 220.335 233.905 220.802 235.638 221.735C237.398 222.642 238.758 223.908 239.718 225.535C240.705 227.162 241.198 229.042 241.198 231.175C241.198 233.282 240.705 235.162 239.718 236.815C238.758 238.442 237.398 239.722 235.638 240.655C233.905 241.562 231.892 242.015 229.598 242.015ZM229.598 236.495C230.985 236.495 232.105 236.002 232.958 235.015C233.812 234.002 234.238 232.722 234.238 231.175C234.238 229.602 233.812 228.322 232.958 227.335C232.105 226.348 230.985 225.855 229.598 225.855C228.212 225.855 227.092 226.348 226.238 227.335C225.385 228.322 224.958 229.602 224.958 231.175C224.958 232.722 225.385 234.002 226.238 235.015C227.092 236.002 228.212 236.495 229.598 236.495ZM264.934 241.375H258.214V239.095C257.547 240.028 256.694 240.748 255.654 241.255C254.64 241.762 253.454 242.015 252.094 242.015C249.747 242.015 247.88 241.322 246.494 239.935C245.134 238.522 244.454 236.482 244.454 233.815V220.975H251.214V233.135C251.214 234.255 251.494 235.095 252.054 235.655C252.614 236.215 253.347 236.495 254.254 236.495C255.134 236.495 255.934 236.255 256.654 235.775C257.374 235.268 257.88 234.602 258.174 233.775V220.975H264.934V241.375ZM283.029 241.375H277.749C273.615 241.375 271.549 239.308 271.549 235.175V226.335H268.389V220.975H271.549V215.935H278.309V220.975H282.829V226.335H278.309V233.855C278.309 234.628 278.455 235.175 278.749 235.495C279.042 235.788 279.562 235.935 280.309 235.935H283.029V241.375Z" fill="#191B1C"/>
        <mask id="mask1_2548_101" style="mask-type:alpha" maskUnits="userSpaceOnUse" x="0" y="0" width="341" height="450">
            <rect width="341" height="450" fill="#282B2D"/>
        </mask>
        <g mask="url(#mask1_2548_101)">
            <rect x="-11.3633" y="-29.96" width="363.733" height="510.72" rx="15.8214" fill="#282B2D"/>
            <rect x="-125.031" y="-199.82" width="591.067" height="829.92" rx="20" fill="#282B2D"/>
            <path d="M-125.031 215.14H466.035V610.1C466.035 621.145 457.081 630.1 446.035 630.1H-105.031C-116.077 630.1 -125.031 621.145 -125.031 610.1V215.14Z" fill="#FFB615"/>
            <path d="M-81.2645 450.344C-81.2645 450.344 77.2452 531.854 170.28 531.854C263.314 531.854 411.48 450.344 411.48 450.344C411.48 450.344 318.274 331.99 170.28 331.99C32.4021 331.99 -81.2645 450.344 -81.2645 450.344Z" fill="white"/>
            <ellipse cx="170.505" cy="437.234" rx="62.5167" ry="62.7" fill="#191B1C"/>
            <ellipse cx="170.505" cy="437.234" rx="62.5167" ry="62.7" fill="#FF2F2F"/>
            <ellipse cx="170.664" cy="437.235" rx="41.0824" ry="41.2029" fill="#191B1C"/>
            <ellipse cx="170.664" cy="437.235" rx="41.0824" ry="41.2029" fill="#282B2D"/>
            <path d="M-81.2645 -19.7003C-81.2645 -19.7003 77.2452 -101.21 170.28 -101.21C263.314 -101.21 411.48 -19.7003 411.48 -19.7003C411.48 -19.7003 318.274 98.6543 170.28 98.6543C32.4021 98.6543 -81.2645 -19.7003 -81.2645 -19.7003Z" fill="white"/>
            <ellipse cx="62.5167" cy="62.7" rx="62.5167" ry="62.7" transform="matrix(1 0 0 -1 107.988 56.1099)" fill="#191B1C"/>
            <ellipse cx="62.5167" cy="62.7" rx="62.5167" ry="62.7" transform="matrix(1 0 0 -1 107.988 56.1099)" fill="#7FC2F4"/>
            <ellipse cx="41.0824" cy="41.2029" rx="41.0824" ry="41.2029" transform="matrix(1 0 0 -1 129.582 34.6123)" fill="#191B1C"/>
            <ellipse cx="41.0824" cy="41.2029" rx="41.0824" ry="41.2029" transform="matrix(1 0 0 -1 129.582 34.6123)" fill="#282B2D"/>
        </g>
    </g>
</svg>
