<svg width="341" height="450" viewBox="0 0 341 450" fill="none" xmlns="http://www.w3.org/2000/svg">
<mask id="mask0_2548_188" style="mask-type:alpha" maskUnits="userSpaceOnUse" x="0" y="0" width="341" height="450">
<rect width="341" height="450" fill="#282B2D"/>
</mask>
<g mask="url(#mask0_2548_188)">
<rect x="-11.3633" y="-15" width="363.733" height="480" fill="#282B2D"/>
<rect x="180.138" y="79.7391" width="323.297" height="319.763" rx="159.882" fill="#B6C1F0" stroke="#282B2D" stroke-width="10.2369"/>
<path d="M282.032 305.082L309.083 176.993H395.432L390.057 202.252H333.626L328.073 228.049H381.458L376.084 253.309H322.698L317.145 279.822H376.263L370.889 305.082H282.032Z" fill="#282B2D"/>
<rect x="-161.374" y="79.7391" width="323.297" height="319.763" rx="159.882" fill="#B6C1F0" stroke="#282B2D" stroke-width="10.2369"/>
<path d="M31.4825 262.445L47.6056 283.764C41.0369 291.407 33.2739 297.379 24.3166 301.678C15.4787 305.858 6.28258 307.948 -3.27187 307.948C-15.3344 307.948 -25.8443 305.619 -34.8016 300.962C-43.6394 296.184 -50.5067 289.496 -55.4034 280.897C-60.1806 272.179 -62.5692 261.968 -62.5692 250.263C-62.5692 239.873 -60.718 230.08 -57.0157 220.883C-53.1939 211.687 -47.9389 203.566 -41.2508 196.52C-34.5627 189.473 -26.8594 183.979 -18.141 180.038C-9.42255 176.097 -0.106963 174.126 9.80578 174.126C31.9005 174.126 48.5013 181.889 59.6084 197.415L37.9317 216.405C34.2294 210.792 30.1687 206.791 25.7498 204.402C21.3308 201.894 15.9565 200.64 9.62664 200.64C1.98308 200.64 -4.94391 202.849 -11.1543 207.268C-17.3647 211.568 -22.2614 217.48 -25.8443 225.004C-29.4272 232.408 -31.2187 240.828 -31.2187 250.263C-31.2187 259.579 -28.6509 267.103 -23.5154 272.836C-18.2604 278.568 -11.3932 281.435 -2.91358 281.435C3.6551 281.435 9.92521 279.763 15.8967 276.419C21.8683 273.075 27.0635 268.417 31.4825 262.445Z" fill="#282B2D"/>
</g>
</svg>
