<svg width="342" height="450" viewBox="0 0 342 450" fill="none" xmlns="http://www.w3.org/2000/svg">
<mask id="mask0_2548_458" style="mask-type:alpha" maskUnits="userSpaceOnUse" x="0" y="0" width="342" height="450">
<rect width="342" height="450" fill="#282B2D"/>
</mask>
<g mask="url(#mask0_2548_458)">
<rect x="-11.3984" y="-15" width="364.8" height="480" fill="#282B2D"/>
<rect x="-29" y="-55" width="400" height="560" rx="20" fill="#272626"/>
<path d="M25 -82.2C25 -76.76 23.08 -72.12 19.24 -68.28C15.56 -64.44 10.92 -62.52 5.32 -62.52C0.680003 -62.52 -2.76 -63.72 -5 -66.12C-7.08 -68.68 -8.12 -72.12 -8.12 -76.44C-8.12 -81.24 -6.76 -86.6 -4.04 -92.52C-1.32 -98.6 2.2 -104.68 6.52 -110.76C11 -116.84 15.88 -122.12 21.16 -126.6H35.8C30.68 -121.16 26.2 -115.64 22.36 -110.04C18.52 -104.6 15.8 -99.56 14.2 -94.92C17.56 -94.44 20.2 -93.08 22.12 -90.84C24.04 -88.6 25 -85.72 25 -82.2ZM63.88 -82.2C63.88 -76.76 61.96 -72.12 58.12 -68.28C54.44 -64.44 49.8 -62.52 44.2 -62.52C39.56 -62.52 36.12 -63.72 33.88 -66.12C31.8 -68.68 30.76 -72.12 30.76 -76.44C30.76 -81.24 32.12 -86.6 34.84 -92.52C37.56 -98.6 41.08 -104.68 45.4 -110.76C49.88 -116.84 54.76 -122.12 60.04 -126.6H74.68C69.56 -121.16 65.08 -115.64 61.24 -110.04C57.4 -104.6 54.68 -99.56 53.08 -94.92C56.44 -94.44 59.08 -93.08 61 -90.84C62.92 -88.6 63.88 -85.72 63.88 -82.2ZM200.161 5.16L214.561 23.4C205.761 33.64 195.681 41.48 184.321 46.92C173.121 52.2 161.281 54.84 148.801 54.84C133.761 54.84 120.641 51.8 109.441 45.72C98.2406 39.48 89.6006 30.68 83.5206 19.32C77.4406 7.96 74.4006 -5.32 74.4006 -20.52C74.4006 -34.76 76.9606 -48.12 82.0806 -60.6C87.2006 -73.24 94.2406 -84.28 103.201 -93.72C112.161 -103.32 122.481 -110.84 134.161 -116.28C145.841 -121.72 158.321 -124.44 171.601 -124.44C184.881 -124.44 196.801 -121.56 207.361 -115.8C218.081 -110.2 226.721 -102.12 233.281 -91.56L214.561 -76.44C209.121 -85.4 202.801 -91.96 195.601 -96.12C188.561 -100.28 180.081 -102.36 170.161 -102.36C160.561 -102.36 151.521 -100.2 143.041 -95.88C134.721 -91.56 127.281 -85.64 120.721 -78.12C114.321 -70.6 109.281 -61.88 105.601 -51.96C102.081 -42.2 100.321 -31.72 100.321 -20.52C100.321 -9.96 102.321 -0.680002 106.321 7.32C110.481 15.32 116.161 21.56 123.361 26.04C130.721 30.52 139.201 32.76 148.801 32.76C168.321 32.76 185.441 23.56 200.161 5.16ZM232.808 51L258.008 -68.28H281.768L276.728 -43.8C281.848 -52.28 288.168 -58.76 295.688 -63.24C303.208 -67.88 311.368 -70.2 320.168 -70.2H324.248L319.448 -47.4H314.408C303.048 -47.4 293.208 -43.48 284.888 -35.64C276.728 -27.96 270.888 -15.8 267.368 0.839998L256.808 51H232.808ZM434.179 31.56C420.259 47.08 402.899 54.84 382.099 54.84C370.899 54.84 361.059 52.68 352.579 48.36C344.259 44.04 337.779 37.96 333.139 30.12C328.499 22.12 326.179 12.84 326.179 2.28C326.179 -8.28 327.939 -18.04 331.459 -27C335.139 -35.96 340.099 -43.8 346.339 -50.52C352.739 -57.4 360.179 -62.68 368.659 -66.36C377.299 -70.2 386.499 -72.12 396.259 -72.12C410.019 -72.12 421.139 -68.68 429.619 -61.8C438.259 -54.92 442.579 -45.96 442.579 -34.92C442.579 -24.2 438.339 -15.8 429.859 -9.72001C421.539 -3.8 409.859 -0.840001 394.819 -0.840001H351.139C351.139 0.279999 351.139 1.4 351.139 2.52C351.139 12.28 354.099 20.12 360.019 26.04C365.939 31.96 373.939 34.92 384.019 34.92C398.579 34.92 410.899 28.44 420.979 15.48L434.179 31.56ZM396.499 -52.2C386.419 -52.2 377.619 -49.08 370.099 -42.84C362.579 -36.76 357.219 -28.52 354.019 -18.12H393.619C401.619 -18.12 407.859 -19.56 412.339 -22.44C416.819 -25.32 419.059 -29.4 419.059 -34.68C419.059 -39.8 416.899 -43.96 412.579 -47.16C408.419 -50.52 403.059 -52.2 396.499 -52.2ZM45.16 131L49.24 112.04C38.52 127.24 24.76 134.84 7.96 134.84C-3.56 134.84 -13 131.56 -20.36 125C-27.72 118.28 -31.4 109.64 -31.4 99.08C-31.4 86.28 -25.96 76.12 -15.08 68.6C-4.04 61.08 10.84 57.32 29.56 57.32H59.56C61.16 47.56 60.04 40.12 56.2 35C52.36 29.88 45.8 27.32 36.52 27.32C29.64 27.32 22.84 28.84 16.12 31.88C9.56 34.76 3.72 39 -1.4 44.6L-14.36 29C-7.8 22.28 0.200001 17.08 9.64 13.4C19.08 9.72 28.84 7.88 38.92 7.88C53.16 7.88 64.04 11.4 71.56 18.44C79.24 25.32 83.08 35 83.08 47.48C83.08 49.56 82.92 51.96 82.6 54.68C82.28 57.4 81.88 60.04 81.4 62.6L67 131H45.16ZM14.2 116.12C22.04 116.12 29.4 113.4 36.28 107.96C43.32 102.52 49.24 95 54.04 85.4L56.2 74.36H29.08C17.72 74.36 8.84 76.44 2.44 80.6C-3.8 84.6 -6.92 90.28 -6.92 97.64C-6.92 103.08 -5 107.56 -1.16 111.08C2.68 114.44 7.8 116.12 14.2 116.12ZM117.649 92.12L130.369 31.88H110.209L114.289 11.72H134.689L141.889 -21.64H165.889L158.689 11.72H186.049L181.729 31.88H154.369L141.409 93.08C141.089 95 140.769 96.68 140.449 98.12C140.289 99.4 140.209 100.6 140.209 101.72C140.209 104.92 140.929 107.24 142.369 108.68C143.969 109.96 146.689 110.6 150.529 110.6H168.049L163.729 131H144.529C134.609 131 127.249 129 122.449 125C117.809 121 115.489 114.92 115.489 106.76C115.489 102.76 116.209 97.88 117.649 92.12ZM219.672 -28.12C219.672 -33.24 221.432 -37.56 224.952 -41.08C228.632 -44.6 233.032 -46.36 238.152 -46.36C242.312 -46.36 245.592 -45.16 247.992 -42.76C250.552 -40.36 251.832 -37.16 251.832 -33.16C251.832 -28.2 250.072 -23.96 246.552 -20.44C243.032 -16.92 238.632 -15.16 233.352 -15.16C229.192 -15.16 225.832 -16.36 223.272 -18.76C220.872 -21.16 219.672 -24.28 219.672 -28.12ZM189.672 131L214.872 11.72H238.872L213.672 131H189.672ZM282.803 131L261.443 11.72H285.923L300.083 105.8L353.843 11.72H378.803L307.043 131H282.803ZM1 51.88C1 46.76 2.76 42.44 6.28 38.92C9.96 35.4 14.36 33.64 19.48 33.64C23.64 33.64 26.92 34.84 29.32 37.24C31.88 39.64 33.16 42.84 33.16 46.84C33.16 51.8 31.4 56.04 27.88 59.56C24.36 63.08 19.96 64.84 14.68 64.84C10.52 64.84 7.16 63.64 4.6 61.24C2.2 58.84 1 55.72 1 51.88ZM-29 211L-3.8 91.72H20.2L-5 211H-29ZM47.5713 172.12L60.2913 111.88H40.1313L44.2113 91.72H64.6113L71.8113 58.36H95.8113L88.6113 91.72H115.971L111.651 111.88H84.2913L71.3313 173.08C71.0113 175 70.6913 176.68 70.3713 178.12C70.2113 179.4 70.1313 180.6 70.1313 181.72C70.1313 184.92 70.8513 187.24 72.2913 188.68C73.8913 189.96 76.6113 190.6 80.4513 190.6H97.9713L93.6513 211H74.4513C64.5313 211 57.1713 209 52.3713 205C47.7313 201 45.4113 194.92 45.4113 186.76C45.4113 182.76 46.1313 177.88 47.5713 172.12ZM108.794 257.56L112.874 237.4H125.834C130.634 237.4 134.634 236.28 137.834 234.04C141.194 231.8 144.394 227.72 147.434 221.8L153.194 211.24L131.834 91.72H156.554L170.474 186.04L224.474 91.72H249.434L165.194 231.4C161.354 237.8 157.514 242.92 153.674 246.76C149.834 250.6 145.514 253.32 140.714 254.92C135.914 256.68 129.914 257.56 122.714 257.56H108.794ZM334.281 51.88C334.281 46.76 336.041 42.44 339.561 38.92C343.241 35.4 347.641 33.64 352.761 33.64C356.921 33.64 360.201 34.84 362.601 37.24C365.161 39.64 366.441 42.84 366.441 46.84C366.441 51.8 364.681 56.04 361.161 59.56C357.641 63.08 353.241 64.84 347.961 64.84C343.801 64.84 340.441 63.64 337.881 61.24C335.481 58.84 334.281 55.72 334.281 51.88ZM304.281 211L329.481 91.72H353.481L328.281 211H304.281ZM355.652 189.88L372.213 176.2C375.893 182.12 381.013 186.92 387.573 190.6C394.293 194.12 401.813 195.88 410.133 195.88C417.653 195.88 423.973 194.2 429.093 190.84C434.373 187.48 437.013 182.84 437.013 176.92C437.013 172.76 435.093 169.4 431.253 166.84C427.413 164.28 421.013 161.96 412.053 159.88C386.613 153.8 373.893 142.6 373.893 126.28C373.893 118.92 376.053 112.36 380.373 106.6C384.693 100.84 390.533 96.28 397.893 92.92C405.413 89.56 413.893 87.88 423.333 87.88C433.413 87.88 442.613 89.96 450.933 94.12C459.413 98.28 466.373 104.12 471.813 111.64L455.253 124.84C447.413 112.84 436.533 106.84 422.613 106.84C415.093 106.84 409.013 108.44 404.373 111.64C399.893 114.68 397.653 118.76 397.653 123.88C397.653 127.4 399.333 130.36 402.693 132.76C406.053 135.16 411.733 137.32 419.733 139.24C433.973 142.6 444.373 147.08 450.933 152.68C457.653 158.12 461.013 165.24 461.013 174.04C461.013 182.2 458.693 189.4 454.053 195.64C449.573 201.72 443.413 206.44 435.573 209.8C427.733 213.16 418.933 214.84 409.173 214.84C398.453 214.84 388.213 212.68 378.453 208.36C368.853 204.04 361.253 197.88 355.652 189.88ZM-19.4 851L1.72 751.88H-18.44L-14.36 731.72H5.8L10.6 709.64C14.76 688.68 26.6 678.2 46.12 678.2H70.12L66.04 697.64H49C44.84 697.64 41.56 698.76 39.16 701C36.92 703.08 35.24 706.6 34.12 711.56L29.8 731.72H58.6L54.52 751.88H25.48L4.6 851H-19.4ZM58.4331 851L83.6331 731.72H107.393L102.353 756.2C107.473 747.72 113.793 741.24 121.313 736.76C128.833 732.12 136.993 729.8 145.793 729.8H149.873L145.073 752.6H140.033C128.673 752.6 118.833 756.52 110.513 764.36C102.353 772.04 96.5131 784.2 92.9931 800.84L82.4331 851H58.4331ZM259.804 831.56C245.884 847.08 228.524 854.84 207.724 854.84C196.524 854.84 186.684 852.68 178.204 848.36C169.884 844.04 163.404 837.96 158.764 830.12C154.124 822.12 151.804 812.84 151.804 802.28C151.804 791.72 153.564 781.96 157.084 773C160.764 764.04 165.724 756.2 171.964 749.48C178.364 742.6 185.804 737.32 194.284 733.64C202.924 729.8 212.124 727.88 221.884 727.88C235.644 727.88 246.764 731.32 255.244 738.2C263.884 745.08 268.204 754.04 268.204 765.08C268.204 775.8 263.964 784.2 255.484 790.28C247.164 796.2 235.484 799.16 220.444 799.16H176.764C176.764 800.28 176.764 801.4 176.764 802.52C176.764 812.28 179.724 820.12 185.644 826.04C191.564 831.96 199.564 834.92 209.644 834.92C224.204 834.92 236.524 828.44 246.604 815.48L259.804 831.56ZM222.124 747.8C212.044 747.8 203.244 750.92 195.724 757.16C188.204 763.24 182.844 771.48 179.644 781.88H219.244C227.244 781.88 233.484 780.44 237.964 777.56C242.444 774.68 244.684 770.6 244.684 765.32C244.684 760.2 242.524 756.04 238.204 752.84C234.044 749.48 228.684 747.8 222.124 747.8ZM395.976 831.56C382.056 847.08 364.696 854.84 343.896 854.84C332.696 854.84 322.856 852.68 314.376 848.36C306.056 844.04 299.576 837.96 294.936 830.12C290.296 822.12 287.976 812.84 287.976 802.28C287.976 791.72 289.736 781.96 293.256 773C296.936 764.04 301.896 756.2 308.136 749.48C314.536 742.6 321.976 737.32 330.456 733.64C339.096 729.8 348.296 727.88 358.056 727.88C371.816 727.88 382.936 731.32 391.416 738.2C400.056 745.08 404.376 754.04 404.376 765.08C404.376 775.8 400.136 784.2 391.656 790.28C383.336 796.2 371.656 799.16 356.616 799.16H312.936C312.936 800.28 312.936 801.4 312.936 802.52C312.936 812.28 315.896 820.12 321.816 826.04C327.736 831.96 335.736 834.92 345.816 834.92C360.376 834.92 372.696 828.44 382.776 815.48L395.976 831.56ZM358.296 747.8C348.216 747.8 339.416 750.92 331.896 757.16C324.376 763.24 319.016 771.48 315.816 781.88H355.416C363.416 781.88 369.656 780.44 374.136 777.56C378.616 774.68 380.856 770.6 380.856 765.32C380.856 760.2 378.696 756.04 374.376 752.84C370.216 749.48 364.856 747.8 358.296 747.8ZM412.501 839.72C412.501 834.28 414.261 829.72 417.781 826.04C421.301 822.36 425.781 820.52 431.221 820.52C435.381 820.52 438.821 821.88 441.541 824.6C444.261 827.32 445.621 830.76 445.621 834.92C445.621 840.36 443.861 844.92 440.341 848.6C436.821 852.12 432.341 853.88 426.901 853.88C422.741 853.88 419.301 852.6 416.581 850.04C413.861 847.48 412.501 844.04 412.501 839.72ZM4.36 816.52H-10.28C-5.16 811.08 -0.679998 805.64 3.16 800.2C7 794.6 9.72 789.48 11.32 784.84C7.96 784.36 5.32 783 3.4 780.76C1.48 778.52 0.52 775.56 0.52 771.88C0.52 766.6 2.44 762.04 6.28 758.2C10.12 754.36 14.76 752.44 20.2 752.44C24.84 752.44 28.2 753.72 30.28 756.28C32.52 758.68 33.64 762.04 33.64 766.36C33.64 771 32.28 776.36 29.56 782.44C26.84 788.52 23.24 794.6 18.76 800.68C14.44 806.6 9.64 811.88 4.36 816.52ZM43.24 816.52H28.6C33.72 811.08 38.2 805.64 42.04 800.2C45.88 794.6 48.6 789.48 50.2 784.84C46.84 784.36 44.2 783 42.28 780.76C40.36 778.52 39.4 775.56 39.4 771.88C39.4 766.6 41.32 762.04 45.16 758.2C49 754.36 53.64 752.44 59.08 752.44C63.72 752.44 67.08 753.72 69.16 756.28C71.4 758.68 72.52 762.04 72.52 766.36C72.52 771 71.16 776.36 68.44 782.44C65.72 788.52 62.12 794.6 57.64 800.68C53.32 806.6 48.52 811.88 43.24 816.52Z" fill="#FF5B2B"/>
<path d="M-28.52 291L-3.32 171.72H20.44L15.4 194.76C20.68 186.28 27 179.72 34.36 175.08C41.72 170.28 49.64 167.88 58.12 167.88C68.52 167.88 76.84 171.08 83.08 177.48C89.32 183.88 92.44 192.68 92.44 203.88C92.44 208.68 91.64 215.08 90.04 223.08L75.64 291H51.64L66.04 223.08C67.32 216.68 67.96 211.48 67.96 207.48C67.96 201.56 66.28 196.92 62.92 193.56C59.72 190.2 55.24 188.52 49.48 188.52C38.44 188.52 29.16 193.88 21.64 204.6C14.12 215.32 8.04 231.48 3.4 253.08L-4.52 291H-28.52ZM115.242 242.28C115.242 232.04 117.002 222.44 120.522 213.48C124.042 204.52 128.922 196.6 135.162 189.72C141.402 182.84 148.602 177.48 156.762 173.64C164.922 169.8 173.642 167.88 182.922 167.88C193.962 167.88 203.562 170.04 211.722 174.36C219.882 178.68 226.202 184.76 230.682 192.6C235.162 200.44 237.402 209.72 237.402 220.44C237.402 230.68 235.642 240.28 232.122 249.24C228.602 258.2 223.722 266.12 217.482 273C211.242 279.88 204.042 285.24 195.882 289.08C187.722 292.92 179.002 294.84 169.722 294.84C158.682 294.84 149.082 292.68 140.922 288.36C132.762 284.04 126.442 277.96 121.962 270.12C117.482 262.12 115.242 252.84 115.242 242.28ZM169.722 274.2C177.722 274.2 184.922 271.8 191.322 267C197.722 262.2 202.762 255.72 206.442 247.56C210.282 239.4 212.202 230.36 212.202 220.44C212.202 210.84 209.562 203.16 204.282 197.4C199.002 191.48 191.882 188.52 182.922 188.52C175.082 188.52 167.962 190.92 161.562 195.72C155.162 200.52 150.042 207 146.202 215.16C142.362 223.16 140.442 232.2 140.442 242.28C140.442 252.04 143.082 259.8 148.362 265.56C153.642 271.32 160.762 274.2 169.722 274.2ZM266.009 252.12L278.729 191.88H258.569L262.649 171.72H283.049L290.249 138.36H314.249L307.049 171.72H334.409L330.089 191.88H302.729L289.769 253.08C289.449 255 289.129 256.68 288.809 258.12C288.649 259.4 288.569 260.6 288.569 261.72C288.569 264.92 289.289 267.24 290.729 268.68C292.329 269.96 295.049 270.6 298.889 270.6H316.409L312.089 291H292.889C282.969 291 275.609 289 270.809 285C266.169 281 263.849 274.92 263.849 266.76C263.849 262.76 264.569 257.88 266.009 252.12ZM338.511 291L375.231 118.2H399.231L382.911 194.28C388.031 185.96 394.271 179.48 401.631 174.84C408.991 170.2 416.831 167.88 425.151 167.88C435.551 167.88 443.871 171.08 450.111 177.48C456.511 183.88 459.711 192.68 459.711 203.88C459.711 208.68 458.911 215.08 457.311 223.08L442.671 291H418.671L433.311 223.08C434.591 216.68 435.231 211.48 435.231 207.48C435.231 201.56 433.551 196.92 430.191 193.56C426.991 190.2 422.431 188.52 416.511 188.52C405.471 188.52 396.191 193.88 388.671 204.6C381.311 215.32 375.311 231.48 370.671 253.08L362.511 291H338.511ZM1 211.88C1 206.76 2.76 202.44 6.28 198.92C9.96 195.4 14.36 193.64 19.48 193.64C23.64 193.64 26.92 194.84 29.32 197.24C31.88 199.64 33.16 202.84 33.16 206.84C33.16 211.8 31.4 216.04 27.88 219.56C24.36 223.08 19.96 224.84 14.68 224.84C10.52 224.84 7.16 223.64 4.6 221.24C2.2 218.84 1 215.72 1 211.88ZM-29 371L-3.8 251.72H20.2L-5 371H-29ZM31.0113 371L56.2112 251.72H79.9713L74.9313 274.76C80.2113 266.28 86.5313 259.72 93.8913 255.08C101.251 250.28 109.171 247.88 117.651 247.88C128.051 247.88 136.371 251.08 142.611 257.48C148.851 263.88 151.971 272.68 151.971 283.88C151.971 288.68 151.171 295.08 149.571 303.08L135.171 371H111.171L125.571 303.08C126.851 296.68 127.491 291.48 127.491 287.48C127.491 281.56 125.811 276.92 122.451 273.56C119.251 270.2 114.771 268.52 109.011 268.52C97.9713 268.52 88.6913 273.88 81.1713 284.6C73.6513 295.32 67.5713 311.48 62.9313 333.08L55.0113 371H31.0113ZM165.893 397.88L181.493 382.52C190.613 394.68 202.693 400.76 217.733 400.76C240.133 400.76 254.133 387.64 259.733 361.4L263.333 344.84C257.893 353.64 251.573 360.36 244.373 365C237.173 369.64 228.933 371.96 219.653 371.96C206.053 371.96 195.013 367.56 186.533 358.76C178.213 349.96 174.053 337.88 174.053 322.52C174.053 312.28 175.813 302.68 179.333 293.72C182.853 284.6 187.653 276.68 193.733 269.96C199.973 263.08 207.173 257.72 215.333 253.88C223.493 249.88 232.133 247.88 241.253 247.88C250.693 247.88 258.613 250.12 265.013 254.6C271.413 258.92 275.893 265.16 278.453 273.32L283.253 251.72H306.773L283.733 362.12C279.413 382.12 271.813 397 260.933 406.76C250.213 416.52 235.813 421.4 217.733 421.4C206.693 421.4 196.773 419.4 187.973 415.4C179.173 411.56 171.813 405.72 165.893 397.88ZM199.253 320.84C199.253 330.6 201.573 338.2 206.213 343.64C211.013 348.92 217.653 351.56 226.133 351.56C235.093 351.56 243.413 347.8 251.093 340.28C258.933 332.76 265.173 322.2 269.813 308.6C269.973 306.52 270.053 304.44 270.053 302.36C270.053 291.48 267.573 283.08 262.613 277.16C257.813 271.24 251.013 268.28 242.213 268.28C234.373 268.28 227.173 270.68 220.613 275.48C214.053 280.12 208.853 286.44 205.013 294.44C201.173 302.44 199.253 311.24 199.253 320.84ZM-28.52 451L7.96 278.2H31.96L15.64 354.76C26.52 336.84 41.32 327.88 60.04 327.88C73.64 327.88 84.36 332.52 92.2 341.8C100.2 351.08 104.2 363.56 104.2 379.24C104.2 389.64 102.44 399.4 98.92 408.52C95.56 417.64 90.84 425.72 84.76 432.76C78.84 439.64 71.88 445.08 63.88 449.08C56.04 452.92 47.56 454.84 38.44 454.84C29.8 454.84 22.04 453.08 15.16 449.56C8.28 445.88 2.92 440.92 -0.919999 434.68L-4.52 451H-28.52ZM3.64 412.84L3.4 414.04C5.96 419.96 10.2 424.84 16.12 428.68C22.04 432.52 28.68 434.44 36.04 434.44C44.04 434.44 51.24 432.04 57.64 427.24C64.2 422.44 69.4 415.96 73.24 407.8C77.08 399.64 79 390.6 79 380.68C79 370.6 76.6 362.76 71.8 357.16C67 351.4 60.28 348.52 51.64 348.52C40.44 348.52 30.76 354.04 22.6 365.08C14.44 375.96 8.12 391.88 3.64 412.84ZM221.571 451H197.811L202.611 427.96C197.331 436.6 191.011 443.24 183.651 447.88C176.451 452.52 168.771 454.84 160.611 454.84C150.051 454.84 141.811 451.72 135.891 445.48C130.131 439.24 127.251 430.68 127.251 419.8C127.251 417.08 127.411 414.12 127.731 410.92C128.051 407.56 128.691 403.8 129.651 399.64L143.811 331.72H167.811L153.651 399.64C153.011 402.68 152.451 405.64 151.971 408.52C151.651 411.24 151.491 413.48 151.491 415.24C151.491 421.16 153.011 425.88 156.051 429.4C159.091 432.76 163.331 434.44 168.771 434.44C190.211 434.44 205.491 412.84 214.611 369.64L222.771 331.72H246.771L221.571 451ZM277.259 412.12L289.979 351.88H269.819L273.899 331.72H294.299L301.499 298.36H325.499L318.299 331.72H345.659L341.339 351.88H313.979L301.019 413.08C300.699 415 300.379 416.68 300.059 418.12C299.899 419.4 299.819 420.6 299.819 421.72C299.819 424.92 300.539 427.24 301.979 428.68C303.579 429.96 306.299 430.6 310.139 430.6H327.659L323.339 451H304.139C294.219 451 286.859 449 282.059 445C277.419 441 275.099 434.92 275.099 426.76C275.099 422.76 275.819 417.88 277.259 412.12ZM45.16 531L49.24 512.04C38.52 527.24 24.76 534.84 7.96 534.84C-3.56 534.84 -13 531.56 -20.36 525C-27.72 518.28 -31.4 509.64 -31.4 499.08C-31.4 486.28 -25.96 476.12 -15.08 468.6C-4.04 461.08 10.84 457.32 29.56 457.32H59.56C61.16 447.56 60.04 440.12 56.2 435C52.36 429.88 45.8 427.32 36.52 427.32C29.64 427.32 22.84 428.84 16.12 431.88C9.56 434.76 3.72 439 -1.4 444.6L-14.36 429C-7.8 422.28 0.200001 417.08 9.64 413.4C19.08 409.72 28.84 407.88 38.92 407.88C53.16 407.88 64.04 411.4 71.56 418.44C79.24 425.32 83.08 435 83.08 447.48C83.08 449.56 82.92 451.96 82.6 454.68C82.28 457.4 81.88 460.04 81.4 462.6L67 531H45.16ZM14.2 516.12C22.04 516.12 29.4 513.4 36.28 507.96C43.32 502.52 49.24 495 54.04 485.4L56.2 474.36H29.08C17.72 474.36 8.84 476.44 2.44 480.6C-3.8 484.6 -6.92 490.28 -6.92 497.64C-6.92 503.08 -5 507.56 -1.16 511.08C2.68 514.44 7.8 516.12 14.2 516.12ZM-28.52 611L-3.32 491.72H20.44L15.88 513.08C20.84 505.08 26.76 498.92 33.64 494.6C40.52 490.12 47.8 487.88 55.48 487.88C64.28 487.88 71.24 490.6 76.36 496.04C81.64 501.48 84.6 509.08 85.24 518.84C90.52 508.92 97.08 501.32 104.92 496.04C112.92 490.6 121.48 487.88 130.6 487.88C140.52 487.88 148.36 491 154.12 497.24C159.88 503.48 162.76 512.28 162.76 523.64C162.76 525.88 162.6 528.44 162.28 531.32C162.12 534.2 161.64 537.48 160.84 541.16L145.96 611H121.96L136.84 540.68C137.32 538.12 137.72 535.64 138.04 533.24C138.36 530.84 138.52 528.84 138.52 527.24C138.52 521.48 137.08 516.92 134.2 513.56C131.32 510.2 127.32 508.52 122.2 508.52C111.96 508.52 103.32 513.72 96.28 524.12C89.4 534.52 83.72 550.12 79.24 570.92L70.6 611H46.6L61.48 540.68C62.12 538.12 62.52 535.64 62.68 533.24C63 530.84 63.16 528.84 63.16 527.24C63.16 521.48 61.72 516.92 58.84 513.56C55.96 510.2 51.96 508.52 46.84 508.52C36.6 508.52 27.96 513.72 20.92 524.12C14.04 534.52 8.36 550.12 3.88 570.92L-4.52 611H-28.52ZM211.234 451.88C211.234 446.76 212.994 442.44 216.514 438.92C220.194 435.4 224.594 433.64 229.714 433.64C233.874 433.64 237.154 434.84 239.554 437.24C242.114 439.64 243.394 442.84 243.394 446.84C243.394 451.8 241.634 456.04 238.114 459.56C234.594 463.08 230.194 464.84 224.914 464.84C220.754 464.84 217.394 463.64 214.834 461.24C212.434 458.84 211.234 455.72 211.234 451.88ZM181.234 611L206.434 491.72H230.434L205.234 611H181.234ZM241.246 611L266.446 491.72H290.206L285.166 514.76C290.446 506.28 296.766 499.72 304.126 495.08C311.486 490.28 319.406 487.88 327.886 487.88C338.286 487.88 346.606 491.08 352.846 497.48C359.086 503.88 362.206 512.68 362.206 523.88C362.206 528.68 361.406 535.08 359.806 543.08L345.406 611H321.406L335.806 543.08C337.086 536.68 337.726 531.48 337.726 527.48C337.726 521.56 336.046 516.92 332.686 513.56C329.486 510.2 325.006 508.52 319.246 508.52C308.206 508.52 298.926 513.88 291.406 524.6C283.886 535.32 277.806 551.48 273.166 573.08L265.246 611H241.246ZM59.32 691L64.12 668.2C58.84 676.84 52.6 683.48 45.4 688.12C38.2 692.6 29.88 694.84 20.44 694.84C6.36 694.84 -4.68 690.2 -12.68 680.92C-20.68 671.64 -24.68 659.16 -24.68 643.48C-24.68 633.24 -23 623.56 -19.64 614.44C-16.12 605.32 -11.4 597.32 -5.48 590.44C0.600002 583.4 7.64 577.88 15.64 573.88C23.8 569.88 32.6 567.88 42.04 567.88C51.8 567.88 59.88 570.2 66.28 574.84C72.68 579.32 77.16 585.64 79.72 593.8L95.56 518.2H119.56L82.84 691H59.32ZM0.52 642.04C0.52 652.28 2.92 660.28 7.72 666.04C12.68 671.64 19.4 674.44 27.88 674.44C37.16 674.44 45.48 670.6 52.84 662.92C60.36 655.24 66.36 644.76 70.84 631.48C71.16 628.28 71.32 625.24 71.32 622.36C71.32 611.64 68.84 603.32 63.88 597.4C58.92 591.32 52.2 588.28 43.72 588.28C35.72 588.28 28.44 590.76 21.88 595.72C15.32 600.52 10.12 607 6.28 615.16C2.44 623.16 0.52 632.12 0.52 642.04ZM-37.16 749.88L-20.6 736.2C-16.92 742.12 -11.8 746.92 -5.24 750.6C1.48 754.12 9 755.88 17.32 755.88C24.84 755.88 31.16 754.2 36.28 750.84C41.56 747.48 44.2 742.84 44.2 736.92C44.2 732.76 42.28 729.4 38.44 726.84C34.6 724.28 28.2 721.96 19.24 719.88C-6.2 713.8 -18.92 702.6 -18.92 686.28C-18.92 678.92 -16.76 672.36 -12.44 666.6C-8.12 660.84 -2.28 656.28 5.08 652.92C12.6 649.56 21.08 647.88 30.52 647.88C40.6 647.88 49.8 649.96 58.12 654.12C66.6 658.28 73.56 664.12 79 671.64L62.44 684.84C54.6 672.84 43.72 666.84 29.8 666.84C22.28 666.84 16.2 668.44 11.56 671.64C7.08 674.68 4.84 678.76 4.84 683.88C4.84 687.4 6.52 690.36 9.88 692.76C13.24 695.16 18.92 697.32 26.92 699.24C41.16 702.6 51.56 707.08 58.12 712.68C64.84 718.12 68.2 725.24 68.2 734.04C68.2 742.2 65.88 749.4 61.24 755.64C56.76 761.72 50.6 766.44 42.76 769.8C34.92 773.16 26.12 774.84 16.36 774.84C5.64 774.84 -4.6 772.68 -14.36 768.36C-23.96 764.04 -31.56 757.88 -37.16 749.88ZM199.804 751.56C185.884 767.08 168.524 774.84 147.724 774.84C136.524 774.84 126.684 772.68 118.204 768.36C109.884 764.04 103.404 757.96 98.7644 750.12C94.1244 742.12 91.8044 732.84 91.8044 722.28C91.8044 711.72 93.5644 701.96 97.0844 693C100.764 684.04 105.724 676.2 111.964 669.48C118.364 662.6 125.804 657.32 134.284 653.64C142.924 649.8 152.124 647.88 161.884 647.88C175.644 647.88 186.764 651.32 195.244 658.2C203.884 665.08 208.204 674.04 208.204 685.08C208.204 695.8 203.964 704.2 195.484 710.28C187.164 716.2 175.484 719.16 160.444 719.16H116.764C116.764 720.28 116.764 721.4 116.764 722.52C116.764 732.28 119.724 740.12 125.644 746.04C131.564 751.96 139.564 754.92 149.644 754.92C164.204 754.92 176.524 748.44 186.604 735.48L199.804 751.56ZM162.124 667.8C152.044 667.8 143.244 670.92 135.724 677.16C128.204 683.24 122.844 691.48 119.644 701.88H159.244C167.244 701.88 173.484 700.44 177.964 697.56C182.444 694.68 184.684 690.6 184.684 685.32C184.684 680.2 182.524 676.04 178.204 672.84C174.044 669.48 168.684 667.8 162.124 667.8ZM236.009 732.12L248.729 671.88H228.569L232.649 651.72H253.049L260.249 618.36H284.249L277.049 651.72H304.409L300.089 671.88H272.729L259.769 733.08C259.449 735 259.129 736.68 258.809 738.12C258.649 739.4 258.569 740.6 258.569 741.72C258.569 744.92 259.289 747.24 260.729 748.68C262.329 749.96 265.049 750.6 268.889 750.6H286.409L282.089 771H262.889C252.969 771 245.609 769 240.809 765C236.169 761 233.849 754.92 233.849 746.76C233.849 742.76 234.569 737.88 236.009 732.12ZM11.8 1091L43.48 941H-7.16L-2.6 919.4H123.4L118.84 941H68.2L36.52 1091H11.8ZM102.586 1042.28C102.586 1032.04 104.346 1022.44 107.866 1013.48C111.386 1004.52 116.266 996.6 122.506 989.72C128.746 982.84 135.946 977.48 144.106 973.64C152.266 969.8 160.986 967.88 170.266 967.88C181.306 967.88 190.906 970.04 199.066 974.36C207.226 978.68 213.546 984.76 218.026 992.6C222.506 1000.44 224.746 1009.72 224.746 1020.44C224.746 1030.68 222.986 1040.28 219.466 1049.24C215.946 1058.2 211.066 1066.12 204.826 1073C198.586 1079.88 191.386 1085.24 183.226 1089.08C175.066 1092.92 166.346 1094.84 157.066 1094.84C146.026 1094.84 136.426 1092.68 128.266 1088.36C120.106 1084.04 113.786 1077.96 109.306 1070.12C104.826 1062.12 102.586 1052.84 102.586 1042.28ZM157.066 1074.2C165.066 1074.2 172.266 1071.8 178.666 1067C185.066 1062.2 190.106 1055.72 193.786 1047.56C197.626 1039.4 199.546 1030.36 199.546 1020.44C199.546 1010.84 196.906 1003.16 191.626 997.4C186.346 991.48 179.226 988.52 170.266 988.52C162.426 988.52 155.306 990.92 148.906 995.72C142.506 1000.52 137.386 1007 133.546 1015.16C129.706 1023.16 127.786 1032.2 127.786 1042.28C127.786 1052.04 130.426 1059.8 135.706 1065.56C140.986 1071.32 148.106 1074.2 157.066 1074.2ZM241.48 1091L266.68 971.72H290.44L285.4 996.2C290.52 987.72 296.84 981.24 304.36 976.76C311.88 972.12 320.04 969.8 328.84 969.8H332.92L328.12 992.6H323.08C311.72 992.6 301.88 996.52 293.56 1004.36C285.4 1012.04 279.56 1024.2 276.04 1040.84L265.48 1091H241.48ZM-28.52 1171L-3.32 1051.72H20.44L15.4 1076.2C20.52 1067.72 26.84 1061.24 34.36 1056.76C41.88 1052.12 50.04 1049.8 58.84 1049.8H62.92L58.12 1072.6H53.08C41.72 1072.6 31.88 1076.52 23.56 1084.36C15.4 1092.04 9.56 1104.2 6.04 1120.84L-4.52 1171H-28.52ZM92.1719 1011.88C92.1719 1006.76 93.9319 1002.44 97.4519 998.92C101.132 995.4 105.532 993.64 110.652 993.64C114.812 993.64 118.092 994.84 120.492 997.24C123.052 999.64 124.332 1002.84 124.332 1006.84C124.332 1011.8 122.572 1016.04 119.052 1019.56C115.532 1023.08 111.132 1024.84 105.852 1024.84C101.692 1024.84 98.3319 1023.64 95.7719 1021.24C93.3719 1018.84 92.1719 1015.72 92.1719 1011.88ZM62.1719 1171L87.3719 1051.72H111.372L86.1719 1171H62.1719ZM234.023 1151.56C220.103 1167.08 202.743 1174.84 181.943 1174.84C170.743 1174.84 160.903 1172.68 152.423 1168.36C144.103 1164.04 137.623 1157.96 132.983 1150.12C128.343 1142.12 126.023 1132.84 126.023 1122.28C126.023 1111.72 127.783 1101.96 131.303 1093C134.983 1084.04 139.943 1076.2 146.183 1069.48C152.583 1062.6 160.023 1057.32 168.503 1053.64C177.143 1049.8 186.343 1047.88 196.103 1047.88C209.863 1047.88 220.983 1051.32 229.463 1058.2C238.103 1065.08 242.423 1074.04 242.423 1085.08C242.423 1095.8 238.183 1104.2 229.703 1110.28C221.383 1116.2 209.703 1119.16 194.663 1119.16H150.983C150.983 1120.28 150.983 1121.4 150.983 1122.52C150.983 1132.28 153.943 1140.12 159.863 1146.04C165.783 1151.96 173.783 1154.92 183.863 1154.92C198.423 1154.92 210.743 1148.44 220.823 1135.48L234.023 1151.56ZM196.343 1067.8C186.263 1067.8 177.463 1070.92 169.943 1077.16C162.423 1083.24 157.063 1091.48 153.863 1101.88H193.463C201.463 1101.88 207.703 1100.44 212.183 1097.56C216.663 1094.68 218.903 1090.6 218.903 1085.32C218.903 1080.2 216.743 1076.04 212.423 1072.84C208.263 1069.48 202.903 1067.8 196.343 1067.8ZM352.581 1171L384.261 1021H333.621L338.181 999.4H464.181L459.621 1021H408.981L377.301 1171H352.581ZM428.673 1159.72C428.673 1154.28 430.433 1149.72 433.953 1146.04C437.473 1142.36 441.953 1140.52 447.393 1140.52C451.553 1140.52 454.993 1141.88 457.713 1144.6C460.433 1147.32 461.793 1150.76 461.793 1154.92C461.793 1160.36 460.033 1164.92 456.513 1168.6C452.993 1172.12 448.513 1173.88 443.073 1173.88C438.913 1173.88 435.473 1172.6 432.753 1170.04C430.033 1167.48 428.673 1164.04 428.673 1159.72ZM-40.28 1251L61.48 1079.4H88.6L117.16 1251H92.2L85.48 1207.8H11.56L-13.4 1251H-40.28ZM24.04 1186.44H82.12L69.88 1107.72L24.04 1186.44ZM133.699 1229.88L150.259 1216.2C153.939 1222.12 159.059 1226.92 165.619 1230.6C172.339 1234.12 179.859 1235.88 188.179 1235.88C195.699 1235.88 202.019 1234.2 207.139 1230.84C212.419 1227.48 215.059 1222.84 215.059 1216.92C215.059 1212.76 213.139 1209.4 209.299 1206.84C205.459 1204.28 199.059 1201.96 190.099 1199.88C164.659 1193.8 151.939 1182.6 151.939 1166.28C151.939 1158.92 154.099 1152.36 158.419 1146.6C162.739 1140.84 168.579 1136.28 175.939 1132.92C183.459 1129.56 191.939 1127.88 201.379 1127.88C211.459 1127.88 220.659 1129.96 228.979 1134.12C237.459 1138.28 244.419 1144.12 249.859 1151.64L233.299 1164.84C225.459 1152.84 214.579 1146.84 200.659 1146.84C193.139 1146.84 187.059 1148.44 182.419 1151.64C177.939 1154.68 175.699 1158.76 175.699 1163.88C175.699 1167.4 177.379 1170.36 180.739 1172.76C184.099 1175.16 189.779 1177.32 197.779 1179.24C212.019 1182.6 222.419 1187.08 228.979 1192.68C235.699 1198.12 239.059 1205.24 239.059 1214.04C239.059 1222.2 236.739 1229.4 232.099 1235.64C227.619 1241.72 221.459 1246.44 213.619 1249.8C205.779 1253.16 196.979 1254.84 187.219 1254.84C176.499 1254.84 166.259 1252.68 156.499 1248.36C146.899 1244.04 139.299 1237.88 133.699 1229.88ZM332.504 1251L336.584 1232.04C325.864 1247.24 312.104 1254.84 295.304 1254.84C283.784 1254.84 274.344 1251.56 266.984 1245C259.624 1238.28 255.944 1229.64 255.944 1219.08C255.944 1206.28 261.384 1196.12 272.264 1188.6C283.304 1181.08 298.184 1177.32 316.904 1177.32H346.904C348.504 1167.56 347.384 1160.12 343.544 1155C339.704 1149.88 333.144 1147.32 323.864 1147.32C316.984 1147.32 310.184 1148.84 303.464 1151.88C296.904 1154.76 291.064 1159 285.944 1164.6L272.984 1149C279.544 1142.28 287.544 1137.08 296.984 1133.4C306.424 1129.72 316.184 1127.88 326.264 1127.88C340.504 1127.88 351.384 1131.4 358.904 1138.44C366.584 1145.32 370.424 1155 370.424 1167.48C370.424 1169.56 370.264 1171.96 369.944 1174.68C369.624 1177.4 369.224 1180.04 368.744 1182.6L354.344 1251H332.504ZM301.544 1236.12C309.384 1236.12 316.744 1233.4 323.624 1227.96C330.664 1222.52 336.584 1215 341.384 1205.4L343.544 1194.36H316.424C305.064 1194.36 296.184 1196.44 289.784 1200.6C283.544 1204.6 280.424 1210.28 280.424 1217.64C280.424 1223.08 282.344 1227.56 286.184 1231.08C290.024 1234.44 295.144 1236.12 301.544 1236.12ZM419.125 1091.88C419.125 1086.76 420.885 1082.44 424.405 1078.92C428.085 1075.4 432.485 1073.64 437.605 1073.64C441.765 1073.64 445.045 1074.84 447.445 1077.24C450.005 1079.64 451.285 1082.84 451.285 1086.84C451.285 1091.8 449.525 1096.04 446.005 1099.56C442.485 1103.08 438.085 1104.84 432.805 1104.84C428.645 1104.84 425.285 1103.64 422.725 1101.24C420.325 1098.84 419.125 1095.72 419.125 1091.88ZM389.125 1251L414.325 1131.72H438.325L413.125 1251H389.125Z" fill="#FA9DBC"/>
</g>
</svg>
