<svg width="342" height="450" viewBox="0 0 342 450" fill="none" xmlns="http://www.w3.org/2000/svg">
<mask id="mask0_2548_128" style="mask-type:alpha" maskUnits="userSpaceOnUse" x="0" y="0" width="342" height="450">
<rect width="342" height="450" fill="#282B2D"/>
</mask>
<g mask="url(#mask0_2548_128)">
<rect x="-11.3984" y="-15" width="364.8" height="480" fill="#282B2D"/>
<path d="M25.2109 326.058H53.3774C53.3774 325.275 53.3804 316.982 53.3863 316.2C54.6477 150.833 189.093 17.1664 354.758 17.1664V-11C173.537 -11 26.4811 135.277 25.2191 316.2C25.2137 316.982 25.2109 325.275 25.2109 326.058Z" fill="#FF2F2F"/>
<path d="M53.3789 318.547C53.3789 152.099 188.312 17.1665 354.76 17.1665V45.3329C203.868 45.3329 81.5453 167.655 81.5453 318.547H53.3789Z" fill="#FA9DBC"/>
<path d="M354.757 45.333C203.865 45.333 81.543 167.655 81.543 318.547H109.709C109.709 183.211 219.421 73.4994 354.757 73.4994V45.333Z" fill="#F486C9"/>
<path d="M109.711 318.548C109.711 183.211 219.423 73.4995 354.759 73.4995V101.666C234.979 101.666 137.877 198.767 137.877 318.548H109.711Z" fill="#6A55A2"/>
<path d="M354.757 101.666C234.976 101.666 137.875 198.767 137.875 318.547H166.041C166.041 214.323 250.532 129.832 354.757 129.832V101.666Z" fill="#7FC2F4"/>
<path d="M166.043 318.547C166.043 214.323 250.534 129.832 354.758 129.832V157.998C266.09 157.998 194.209 229.879 194.209 318.547H166.043Z" fill="#268040"/>
<path d="M354.76 157.999C266.091 157.999 194.211 229.879 194.211 318.547H222.377C222.377 245.435 281.647 186.165 354.76 186.165V157.999Z" fill="#92D0AB"/>
<path d="M222.375 318.547C222.375 245.435 281.645 186.165 354.757 186.165V214.331C297.2 214.331 250.541 260.99 250.541 318.547H222.375Z" fill="#DCD9BF"/>
<path d="M354.759 214.332C297.202 214.332 250.543 260.991 250.543 318.547H278.709C278.709 276.546 312.758 242.498 354.759 242.498V214.332Z" fill="#A09D2A"/>
<path d="M212.106 221.843C154.828 221.843 130.306 247.771 114.456 278.176C86.7587 272.073 71.8305 275.828 55.3062 286.156C38.7819 296.484 29.4226 314.186 27.1398 324.181C-9.47662 327.936 -32.4771 349.147 -32.4771 386.147C-32.4775 431.213 -41.3984 470.646 14.472 470.646H337.916C371.246 470.646 365.646 426.519 365.646 378.494C365.646 350.101 346.192 324.837 312.017 324.837C312.017 251.715 249.661 221.843 212.106 221.843Z" fill="#FFD9E0"/>
</g>
</svg>
