<svg width="341" height="450" viewBox="0 0 341 450" fill="none" xmlns="http://www.w3.org/2000/svg">
<mask id="mask0_2548_241" style="mask-type:alpha" maskUnits="userSpaceOnUse" x="0" y="0" width="341" height="450">
<rect width="341" height="450" fill="#282B2D"/>
</mask>
<g mask="url(#mask0_2548_241)">
<rect width="341" height="450" fill="#282B2D"/>
<rect x="62.8203" y="148" width="29.9123" height="30" fill="#FA9DBC"/>
<rect x="124.637" y="148" width="29.9123" height="30" fill="#FA9DBC"/>
<rect x="93.7266" y="148" width="29.9123" height="30" fill="#FA9DBC"/>
<rect x="31.9102" y="148" width="29.9123" height="30" fill="#282B2D"/>
<rect x="155.547" y="148" width="29.9123" height="30" fill="#282B2D"/>
<rect x="186.457" y="148" width="29.9123" height="30" fill="#FA9DBC"/>
<rect x="217.367" y="148" width="29.9123" height="30" fill="#FA9DBC"/>
<rect x="248.273" y="148" width="29.9123" height="30" fill="#FA9DBC"/>
<rect x="279.184" y="148" width="29.9123" height="30" fill="#282B2D"/>
<rect x="310.094" y="148" width="29.9123" height="30" fill="#92D0AB"/>
<rect x="1" y="148" width="29.9123" height="30" fill="#92D0AB"/>
<rect x="62.8203" y="210" width="29.9123" height="30" fill="#FA9DBC"/>
<rect x="124.637" y="210" width="29.9123" height="30" fill="#FA9DBC"/>
<rect x="93.7266" y="210" width="29.9123" height="30" fill="#FA9DBC"/>
<rect x="31.9102" y="210" width="29.9123" height="30" fill="#282B2D"/>
<rect x="155.547" y="210" width="29.9123" height="30" fill="#FA9DBC"/>
<rect x="217.367" y="210" width="29.9123" height="30" fill="#FA9DBC"/>
<rect x="186.457" y="210" width="29.9123" height="30" fill="#FA9DBC"/>
<rect x="248.273" y="210" width="29.9123" height="30" fill="#FA9DBC"/>
<rect x="279.184" y="210" width="29.9123" height="30" fill="#282B2D"/>
<rect x="310.094" y="210" width="29.9123" height="30" fill="#92D0AB"/>
<rect x="1" y="210" width="29.9123" height="30" fill="#92D0AB"/>
<rect x="62.8203" y="117" width="29.9123" height="30" fill="#282B2D"/>
<rect x="124.637" y="117" width="29.9123" height="30" fill="#282B2D"/>
<rect x="93.7266" y="117" width="29.9123" height="30" fill="#282B2D"/>
<rect x="31.9102" y="117" width="29.9123" height="30" fill="#92D0AB"/>
<rect x="155.547" y="117" width="29.9123" height="30" fill="#92D0AB"/>
<rect x="217.367" y="117" width="29.9123" height="30" fill="#282B2D"/>
<rect x="186.457" y="117" width="29.9123" height="30" fill="#282B2D"/>
<rect x="248.273" y="117" width="29.9123" height="30" fill="#282B2D"/>
<rect x="279.184" y="117" width="29.9123" height="30" fill="#92D0AB"/>
<rect x="310.094" y="117" width="29.9123" height="30" fill="#92D0AB"/>
<rect x="1" y="117" width="29.9123" height="30" fill="#92D0AB"/>
<rect x="62.9062" y="86" width="29.9032" height="30" fill="#92D0AB"/>
<rect x="124.703" y="86" width="29.9032" height="30" fill="#92D0AB"/>
<rect x="93.8008" y="86" width="29.9032" height="30" fill="#92D0AB"/>
<rect x="32.0039" y="86" width="29.9032" height="30" fill="#92D0AB"/>
<rect x="155.602" y="86" width="29.9032" height="30" fill="#92D0AB"/>
<rect x="217.406" y="86" width="29.9032" height="30" fill="#92D0AB"/>
<rect x="186.504" y="86" width="29.9032" height="30" fill="#92D0AB"/>
<rect x="248.301" y="86" width="29.9032" height="30" fill="#92D0AB"/>
<rect x="279.203" y="86" width="29.9032" height="30" fill="#92D0AB"/>
<rect x="310.102" y="86" width="29.9032" height="30" fill="#92D0AB"/>
<rect x="1" y="86" width="29.9032" height="30" fill="#92D0AB"/>
<rect x="62.8203" y="272" width="29.9123" height="30" fill="#92D0AB"/>
<rect x="124.637" y="272" width="29.9123" height="30" fill="#FA9DBC"/>
<rect x="93.7266" y="272" width="29.9123" height="30" fill="#282B2D"/>
<rect x="31.9102" y="272" width="29.9123" height="30" fill="#92D0AB"/>
<rect x="217.367" y="272" width="29.9123" height="30" fill="#282B2D"/>
<rect x="155.547" y="272" width="29.9123" height="30" fill="#FA9DBC"/>
<rect x="186.457" y="272" width="29.9123" height="30" fill="#FA9DBC"/>
<rect x="248.273" y="272" width="29.9123" height="30" fill="#92D0AB"/>
<rect x="279.184" y="272" width="29.9123" height="30" fill="#92D0AB"/>
<rect x="310.094" y="272" width="29.9123" height="30" fill="#92D0AB"/>
<rect x="1" y="272" width="29.9123" height="30" fill="#92D0AB"/>
<rect x="62.8203" y="303" width="29.9123" height="30" fill="#92D0AB"/>
<rect x="124.637" y="303" width="29.9123" height="30" fill="#282B2D"/>
<rect x="93.7266" y="303" width="29.9123" height="30" fill="#92D0AB"/>
<rect x="31.9102" y="303" width="29.9123" height="30" fill="#92D0AB"/>
<rect x="217.367" y="303" width="29.9123" height="30" fill="#92D0AB"/>
<rect x="155.547" y="303" width="29.9123" height="30" fill="#FA9DBC"/>
<rect x="186.457" y="303" width="29.9123" height="30" fill="#282B2D"/>
<rect x="248.273" y="303" width="29.9123" height="30" fill="#92D0AB"/>
<rect x="279.184" y="303" width="29.9123" height="30" fill="#92D0AB"/>
<rect x="310.094" y="303" width="29.9123" height="30" fill="#92D0AB"/>
<rect x="1" y="303" width="29.9123" height="30" fill="#92D0AB"/>
<rect x="62.8203" y="179" width="29.9123" height="30" fill="#FA9DBC"/>
<rect x="124.637" y="179" width="29.9123" height="30" fill="#FA9DBC"/>
<rect x="93.7266" y="179" width="29.9123" height="30" fill="white"/>
<rect x="31.9102" y="179" width="29.9123" height="30" fill="#282B2D"/>
<rect x="217.367" y="179" width="29.9123" height="30" fill="#FA9DBC"/>
<rect x="155.547" y="179" width="29.9123" height="30" fill="#FA9DBC"/>
<rect x="186.457" y="179" width="29.9123" height="30" fill="#FA9DBC"/>
<rect x="248.273" y="179" width="29.9123" height="30" fill="#FA9DBC"/>
<rect x="279.184" y="179" width="29.9123" height="30" fill="#282B2D"/>
<rect x="310.094" y="179" width="29.9123" height="30" fill="#92D0AB"/>
<rect x="1" y="179" width="29.9123" height="30" fill="#92D0AB"/>
<rect x="62.8203" y="241" width="29.9123" height="30" fill="#282B2D"/>
<rect x="124.637" y="241" width="29.9123" height="30" fill="#FA9DBC"/>
<rect x="93.7266" y="241" width="29.9123" height="30" fill="#FA9DBC"/>
<rect x="31.9102" y="241" width="29.9123" height="30" fill="#92D0AB"/>
<rect x="217.367" y="241" width="29.9123" height="30" fill="#FA9DBC"/>
<rect x="155.547" y="241" width="29.9123" height="30" fill="#FA9DBC"/>
<rect x="186.457" y="241" width="29.9123" height="30" fill="#FA9DBC"/>
<rect x="248.273" y="241" width="29.9123" height="30" fill="#282B2D"/>
<rect x="279.184" y="241" width="29.9123" height="30" fill="#92D0AB"/>
<rect x="310.094" y="241" width="29.9123" height="30" fill="#92D0AB"/>
<rect x="1" y="241" width="29.9123" height="30" fill="#92D0AB"/>
<rect x="62.8203" y="334" width="29.9123" height="30" fill="#92D0AB"/>
<rect x="124.637" y="334" width="29.9123" height="30" fill="#92D0AB"/>
<rect x="93.7266" y="334" width="29.9123" height="30" fill="#92D0AB"/>
<rect x="31.9102" y="334" width="29.9123" height="30" fill="#92D0AB"/>
<rect x="217.367" y="334" width="29.9123" height="30" fill="#92D0AB"/>
<rect x="155.547" y="334" width="29.9123" height="30" fill="#282B2D"/>
<rect x="186.457" y="334" width="29.9123" height="30" fill="#92D0AB"/>
<rect x="248.273" y="334" width="29.9123" height="30" fill="#92D0AB"/>
<rect x="279.184" y="334" width="29.9123" height="30" fill="#92D0AB"/>
<rect x="310.094" y="334" width="29.9123" height="30" fill="#92D0AB"/>
<rect x="1" y="334" width="29.9123" height="30" fill="#92D0AB"/>
<rect x="62.8203" y="365" width="29.9123" height="30" fill="#92D0AB"/>
<rect x="124.637" y="365" width="29.9123" height="30" fill="#92D0AB"/>
<rect x="93.7266" y="365" width="29.9123" height="30" fill="#92D0AB"/>
<rect x="31.9102" y="365" width="29.9123" height="30" fill="#92D0AB"/>
<rect x="217.367" y="365" width="29.9123" height="30" fill="#92D0AB"/>
<rect x="155.547" y="365" width="29.9123" height="30" fill="#92D0AB"/>
<rect x="186.457" y="365" width="29.9123" height="30" fill="#92D0AB"/>
<rect x="248.273" y="365" width="29.9123" height="30" fill="#92D0AB"/>
<rect x="279.184" y="365" width="29.9123" height="30" fill="#92D0AB"/>
<rect x="310.094" y="365" width="29.9123" height="30" fill="#92D0AB"/>
<rect x="1" y="365" width="29.9123" height="30" fill="#92D0AB"/>
<rect x="62.8203" y="396" width="29.9123" height="30" fill="#92D0AB"/>
<rect x="124.637" y="396" width="29.9123" height="30" fill="#92D0AB"/>
<rect x="93.7266" y="396" width="29.9123" height="30" fill="#92D0AB"/>
<rect x="31.9102" y="396" width="29.9123" height="30" fill="#92D0AB"/>
<rect x="217.367" y="396" width="29.9123" height="30" fill="#92D0AB"/>
<rect x="155.547" y="396" width="29.9123" height="30" fill="#92D0AB"/>
<rect x="186.457" y="396" width="29.9123" height="30" fill="#92D0AB"/>
<rect x="248.273" y="396" width="29.9123" height="30" fill="#92D0AB"/>
<rect x="279.184" y="396" width="29.9123" height="30" fill="#92D0AB"/>
<rect x="310.094" y="396" width="29.9123" height="30" fill="#92D0AB"/>
<rect x="1" y="396" width="29.9123" height="30" fill="#92D0AB"/>
<rect x="62.8203" y="427" width="29.9123" height="30" fill="#92D0AB"/>
<rect x="124.637" y="427" width="29.9123" height="30" fill="#92D0AB"/>
<rect x="93.7266" y="427" width="29.9123" height="30" fill="#92D0AB"/>
<rect x="31.9102" y="427" width="29.9123" height="30" fill="#92D0AB"/>
<rect x="217.367" y="427" width="29.9123" height="30" fill="#92D0AB"/>
<rect x="155.547" y="427" width="29.9123" height="30" fill="#92D0AB"/>
<rect x="186.457" y="427" width="29.9123" height="30" fill="#92D0AB"/>
<rect x="248.273" y="427" width="29.9123" height="30" fill="#92D0AB"/>
<rect x="279.184" y="427" width="29.9123" height="30" fill="#92D0AB"/>
<rect x="310.094" y="427" width="29.9123" height="30" fill="#92D0AB"/>
<rect x="1" y="427" width="29.9123" height="30" fill="#92D0AB"/>
<rect x="62.8203" y="-7" width="29.9123" height="30" fill="#92D0AB"/>
<rect x="124.637" y="-7" width="29.9123" height="30" fill="#92D0AB"/>
<rect x="93.7266" y="-7" width="29.9123" height="30" fill="#92D0AB"/>
<rect x="31.9102" y="-7" width="29.9123" height="30" fill="#92D0AB"/>
<rect x="217.367" y="-7" width="29.9123" height="30" fill="#92D0AB"/>
<rect x="155.547" y="-7" width="29.9123" height="30" fill="#92D0AB"/>
<rect x="186.457" y="-7" width="29.9123" height="30" fill="#92D0AB"/>
<rect x="248.273" y="-7" width="29.9123" height="30" fill="#92D0AB"/>
<rect x="279.184" y="-7" width="29.9123" height="30" fill="#92D0AB"/>
<rect x="310.094" y="-7" width="29.9123" height="30" fill="#92D0AB"/>
<rect x="1" y="-7" width="29.9123" height="30" fill="#92D0AB"/>
<rect x="62.8203" y="24" width="29.9123" height="30" fill="#92D0AB"/>
<rect x="124.637" y="24" width="29.9123" height="30" fill="#92D0AB"/>
<rect x="93.7266" y="24" width="29.9123" height="30" fill="#92D0AB"/>
<rect x="31.9102" y="24" width="29.9123" height="30" fill="#92D0AB"/>
<rect x="217.367" y="24" width="29.9123" height="30" fill="#92D0AB"/>
<rect x="155.547" y="24" width="29.9123" height="30" fill="#92D0AB"/>
<rect x="186.457" y="24" width="29.9123" height="30" fill="#92D0AB"/>
<rect x="248.273" y="24" width="29.9123" height="30" fill="#92D0AB"/>
<rect x="279.184" y="24" width="29.9123" height="30" fill="#92D0AB"/>
<rect x="310.094" y="24" width="29.9123" height="30" fill="#92D0AB"/>
<rect x="1" y="24" width="29.9123" height="30" fill="#92D0AB"/>
<rect x="62.8203" y="55" width="29.9123" height="30" fill="#92D0AB"/>
<rect x="124.637" y="55" width="29.9123" height="30" fill="#92D0AB"/>
<rect x="93.7266" y="55" width="29.9123" height="30" fill="#92D0AB"/>
<rect x="31.9102" y="55" width="29.9123" height="30" fill="#92D0AB"/>
<rect x="217.367" y="55" width="29.9123" height="30" fill="#92D0AB"/>
<rect x="155.547" y="55" width="29.9123" height="30" fill="#92D0AB"/>
<rect x="186.457" y="55" width="29.9123" height="30" fill="#92D0AB"/>
<rect x="248.273" y="55" width="29.9123" height="30" fill="#92D0AB"/>
<rect x="279.184" y="55" width="29.9123" height="30" fill="#92D0AB"/>
<rect x="310.094" y="55" width="29.9123" height="30" fill="#92D0AB"/>
<rect x="1" y="55" width="29.9123" height="30" fill="#92D0AB"/>
</g>
</svg>
