<svg width="342" height="450" viewBox="0 0 342 450" fill="none" xmlns="http://www.w3.org/2000/svg">
<mask id="mask0_4_80" style="mask-type:alpha" maskUnits="userSpaceOnUse" x="0" y="0" width="342" height="450">
<rect width="342" height="450" transform="matrix(1 0 0 -1 0 450)" fill="#9F9D40"/>
</mask>
<g mask="url(#mask0_4_80)">
<rect width="342" height="450" transform="matrix(1 0 0 -1 0 450)" fill="#DCD9BF"/>
<path d="M97 399H127C127 391.166 127.003 396.333 127.01 395.5C128.353 219.367 271.551 77 448 77V47C254.982 47 98.3529 202.799 97.0087 395.5C97.0029 396.333 97 398.166 97 399Z" fill="#FF2F2F"/>
<path d="M127 398C127 220.717 270.717 77 448 77V107C287.285 107 157 237.285 157 398H127Z" fill="#FA9DBC"/>
<path d="M448 107C287.285 107 157 237.285 157 398H187C187 253.854 303.854 137 448 137V107Z" fill="#F486C9"/>
<path d="M187 398C187 253.854 303.854 137 448 137V167C320.422 167 217 270.422 217 398H187Z" fill="#6A55A2"/>
<path d="M448 167C320.422 167 217 270.422 217 398H247C247 286.991 336.991 197 448 197V167Z" fill="#7FC2F4"/>
<path d="M247 398C247 286.991 336.991 197 448 197V227C353.559 227 277 303.559 277 398H247Z" fill="#268040"/>
<path d="M448 227C353.559 227 277 303.559 277 398H307C307 320.128 370.128 257 448 257V227Z" fill="#92D0AB"/>
<path d="M307 398C307 320.128 370.128 257 448 257V287C386.696 287 337 336.696 337 398H307Z" fill="#DCD9BF"/>
<path d="M448 287C386.696 287 337 336.696 337 398H367C367 353.265 403.265 317 448 317V287Z" fill="#DCD9BF"/>
<path d="M296.062 295C235.055 295 208.937 322.616 192.055 355C162.555 348.5 146.655 352.5 129.055 363.5C111.455 374.5 101.486 393.354 99.0547 404C60.0547 408 35.5569 430.591 35.5569 470C35.5565 518 26.0549 560 85.5623 560H430.062C465.562 560 459.596 513 459.596 461.849C459.596 431.607 438.876 404.698 402.476 404.698C402.476 326.816 336.062 295 296.062 295Z" fill="#FFD9E0"/>
</g>
</svg>
