<svg width="341" height="450" viewBox="0 0 341 450" fill="none" xmlns="http://www.w3.org/2000/svg">
<mask id="mask0_2548_152" style="mask-type:alpha" maskUnits="userSpaceOnUse" x="0" y="0" width="341" height="450">
<rect width="341" height="450" fill="#282B2D"/>
</mask>
<g mask="url(#mask0_2548_152)">
<rect x="-11.3633" y="-15" width="363.733" height="480" fill="#282B2D"/>
<mask id="mask1_2548_152" style="mask-type:alpha" maskUnits="userSpaceOnUse" x="21" y="15" width="300" height="420">
<rect x="21" y="15" width="299.123" height="420" rx="15.8214" fill="#282B2D"/>
</mask>
<g mask="url(#mask1_2548_152)">
<rect x="11.0273" y="1" width="319.064" height="448" rx="15.8214" fill="#282B2D"/>
<rect x="45.9258" y="75" width="59.8246" height="60" rx="29.9123" fill="#F486C9"/>
<rect x="115.723" y="75" width="179.474" height="60" rx="30" fill="#92D0AB"/>
<path d="M75.4342 93.55H77.7442V115H75.3442V96.13L70.2142 100.45V97.87L75.4342 93.55Z" fill="#282B2D"/>
<rect x="45.9258" y="315" width="119.649" height="60" rx="30" fill="#FFB615"/>
<path d="M98.4145 351.4L100.035 349.9C100.815 351.16 101.655 352.07 102.555 352.63C103.455 353.19 104.465 353.47 105.585 353.47C106.405 353.47 107.175 353.31 107.895 352.99C108.615 352.67 109.195 352.18 109.635 351.52C110.075 350.86 110.295 350.04 110.295 349.06C110.295 347.78 109.845 346.75 108.945 345.97C108.045 345.19 106.865 344.8 105.405 344.8H103.455V342.79H105.405C106.685 342.79 107.725 342.43 108.525 341.71C109.345 340.99 109.755 340.08 109.755 338.98C109.755 337.82 109.375 336.88 108.615 336.16C107.855 335.44 106.875 335.08 105.675 335.08C103.615 335.08 101.865 336.22 100.425 338.5L98.8045 336.97C100.665 334.37 102.955 333.07 105.675 333.07C106.935 333.07 108.055 333.33 109.035 333.85C110.015 334.35 110.785 335.05 111.345 335.95C111.905 336.85 112.185 337.87 112.185 339.01C112.185 340.07 111.875 341 111.255 341.8C110.635 342.6 109.785 343.21 108.705 343.63C109.965 344.07 110.945 344.76 111.645 345.7C112.365 346.64 112.725 347.75 112.725 349.03C112.725 350.27 112.415 351.38 111.795 352.36C111.195 353.32 110.355 354.08 109.275 354.64C108.215 355.2 106.995 355.48 105.615 355.48C104.135 355.48 102.765 355.14 101.505 354.46C100.265 353.76 99.2345 352.74 98.4145 351.4Z" fill="#282B2D"/>
<rect x="45.9258" y="235" width="59.8246" height="60" rx="29.9123" fill="#268040"/>
<path d="M75.7435 275.48C74.3035 275.48 73.0335 275.15 71.9335 274.49C70.8535 273.83 70.0035 272.91 69.3835 271.73C68.7835 270.53 68.4835 269.13 68.4835 267.53C68.4835 265.33 69.1535 263.06 70.4935 260.72C71.8535 258.38 74.0335 255.99 77.0335 253.55H80.2735C77.9735 255.39 76.1635 257.04 74.8435 258.5C73.5235 259.96 72.5335 261.37 71.8735 262.73C72.3735 262.15 72.9835 261.7 73.7035 261.38C74.4235 261.06 75.2435 260.9 76.1635 260.9C77.4235 260.9 78.5835 261.2 79.6435 261.8C80.7035 262.4 81.5535 263.24 82.1935 264.32C82.8335 265.4 83.1535 266.65 83.1535 268.07C83.1535 269.47 82.8335 270.73 82.1935 271.85C81.5735 272.97 80.7035 273.86 79.5835 274.52C78.4835 275.16 77.2035 275.48 75.7435 275.48ZM75.8035 273.47C76.7635 273.47 77.6135 273.24 78.3535 272.78C79.0935 272.32 79.6735 271.69 80.0935 270.89C80.5335 270.09 80.7535 269.18 80.7535 268.16C80.7535 267.12 80.5335 266.21 80.0935 265.43C79.6735 264.63 79.0935 264.01 78.3535 263.57C77.6135 263.11 76.7635 262.88 75.8035 262.88C74.8835 262.88 74.0435 263.1 73.2835 263.54C72.5435 263.96 71.9435 264.57 71.4835 265.37C71.0435 266.15 70.8235 267.08 70.8235 268.16C70.8235 269.18 71.0335 270.09 71.4535 270.89C71.8935 271.69 72.4935 272.32 73.2535 272.78C74.0135 273.24 74.8635 273.47 75.8035 273.47Z" fill="#282B2D"/>
<rect x="175.547" y="315" width="119.649" height="60" rx="30" fill="#6A55A2"/>
<path d="M240.611 355H238.271V349.66H227.231V347.65L238.271 333.55H240.611V347.65H243.701V349.66H240.611V355ZM238.271 336.55L229.691 347.65H238.271V336.55Z" fill="#282B2D"/>
<rect x="45.9258" y="155" width="249.269" height="60" rx="30" fill="#DCD9BF"/>
<path d="M163.282 191.25L164.902 189.75C166.222 192.23 168.052 193.47 170.392 193.47C171.872 193.47 173.052 192.96 173.932 191.94C174.812 190.92 175.252 189.59 175.252 187.95C175.252 186.99 175.052 186.13 174.652 185.37C174.252 184.59 173.702 183.98 173.002 183.54C172.302 183.08 171.482 182.85 170.542 182.85C169.682 182.85 168.812 183.08 167.932 183.54C167.072 183.98 166.422 184.69 165.982 185.67H163.852L165.172 173.55H176.572V175.56H167.062L166.282 182.94C166.782 182.28 167.422 181.77 168.202 181.41C168.982 181.03 169.852 180.84 170.812 180.84C172.112 180.84 173.272 181.17 174.292 181.83C175.332 182.47 176.152 183.34 176.752 184.44C177.352 185.52 177.652 186.73 177.652 188.07C177.652 189.51 177.342 190.79 176.722 191.91C176.122 193.01 175.272 193.88 174.172 194.52C173.072 195.16 171.802 195.48 170.362 195.48C168.842 195.48 167.462 195.13 166.222 194.43C165.002 193.71 164.022 192.65 163.282 191.25Z" fill="#282B2D"/>
<path d="M212.555 115H199.025V113.08L206.135 105.79C207.135 104.77 207.925 103.88 208.505 103.12C209.085 102.36 209.495 101.65 209.735 100.99C209.975 100.31 210.095 99.61 210.095 98.89C210.095 97.71 209.745 96.78 209.045 96.1C208.345 95.42 207.385 95.08 206.165 95.08C204.965 95.08 203.915 95.37 203.015 95.95C202.115 96.53 201.295 97.46 200.555 98.74L198.905 97.24C200.665 94.46 203.095 93.07 206.195 93.07C207.435 93.07 208.515 93.31 209.435 93.79C210.375 94.27 211.105 94.95 211.625 95.83C212.165 96.69 212.435 97.69 212.435 98.83C212.435 99.71 212.295 100.55 212.015 101.35C211.735 102.13 211.235 102.99 210.515 103.93C209.795 104.85 208.785 105.98 207.485 107.32L201.965 112.99H212.555V115Z" fill="#282B2D"/>
<rect x="115.723" y="235" width="109.678" height="60" rx="30" fill="#FF5B2B"/>
<path d="M177.432 253.55V255.56L167.262 275H164.772L174.942 255.56H163.692V253.55H177.432Z" fill="#282B2D"/>
<rect x="235.371" y="235" width="59.8246" height="60" rx="29.9123" fill="#FF2F2F"/>
<path d="M265.278 275.48C263.838 275.48 262.558 275.21 261.438 274.67C260.338 274.13 259.468 273.39 258.828 272.45C258.188 271.49 257.868 270.4 257.868 269.18C257.868 267.92 258.238 266.81 258.978 265.85C259.718 264.87 260.708 264.14 261.948 263.66C260.928 263.22 260.118 262.59 259.518 261.77C258.918 260.95 258.618 260.03 258.618 259.01C258.618 257.85 258.898 256.83 259.458 255.95C260.038 255.05 260.828 254.35 261.828 253.85C262.848 253.33 263.998 253.07 265.278 253.07C266.578 253.07 267.728 253.33 268.728 253.85C269.728 254.35 270.508 255.05 271.068 255.95C271.648 256.83 271.938 257.85 271.938 259.01C271.938 260.03 271.638 260.95 271.038 261.77C270.438 262.59 269.628 263.22 268.608 263.66C269.848 264.14 270.838 264.87 271.578 265.85C272.318 266.81 272.688 267.92 272.688 269.18C272.688 270.4 272.368 271.49 271.728 272.45C271.088 273.39 270.208 274.13 269.088 274.67C267.988 275.21 266.718 275.48 265.278 275.48ZM265.278 262.85C266.078 262.85 266.798 262.68 267.438 262.34C268.078 262 268.588 261.55 268.968 260.99C269.348 260.41 269.538 259.76 269.538 259.04C269.538 258.28 269.348 257.61 268.968 257.03C268.588 256.43 268.078 255.96 267.438 255.62C266.798 255.26 266.078 255.08 265.278 255.08C264.498 255.08 263.778 255.26 263.118 255.62C262.478 255.96 261.968 256.43 261.588 257.03C261.208 257.61 261.018 258.28 261.018 259.04C261.018 259.76 261.208 260.41 261.588 260.99C261.968 261.55 262.478 262 263.118 262.34C263.778 262.68 264.498 262.85 265.278 262.85ZM265.278 273.47C266.218 273.47 267.058 273.28 267.798 272.9C268.558 272.52 269.158 272.01 269.598 271.37C270.038 270.71 270.258 269.97 270.258 269.15C270.258 268.33 270.038 267.6 269.598 266.96C269.158 266.3 268.558 265.79 267.798 265.43C267.058 265.05 266.218 264.86 265.278 264.86C264.358 264.86 263.518 265.05 262.758 265.43C261.998 265.79 261.398 266.3 260.958 266.96C260.518 267.6 260.298 268.33 260.298 269.15C260.298 269.97 260.518 270.71 260.958 271.37C261.398 272.01 261.998 272.52 262.758 272.9C263.518 273.28 264.358 273.47 265.278 273.47Z" fill="#282B2D"/>
</g>
</g>
</svg>
