<svg width="30" height="30" viewBox="0 0 30 30" fill="none"
    xmlns="http://www.w3.org/2000/svg">
    <g clip-path="url(#clip0_2507_4184)">
        <path d="M8.75 7.5C7.60093 7.5 6.46312 7.72633 5.40152 8.16605C4.33992 8.60578 3.37533 9.2503 2.56282 10.0628C1.7503 10.8753 1.10578 11.8399 0.666054 12.9015C0.226325 13.9631 0 15.1009 0 16.25C0 17.3991 0.226325 18.5369 0.666054 19.5985C1.10578 20.6601 1.7503 21.6247 2.56282 22.4372C3.37533 23.2497 4.33992 23.8942 5.40152 24.3339C6.46312 24.7737 7.60093 25 8.75 25C9.89907 25 11.0369 24.7737 12.0985 24.3339C13.1601 23.8942 14.1247 23.2497 14.9372 22.4372C15.7497 21.6247 16.3942 20.6601 16.8339 19.5985C17.2737 18.5369 17.5 17.3991 17.5 16.25C17.5 15.1009 17.2737 13.9631 16.8339 12.9015C16.3942 11.8399 15.7497 10.8753 14.9372 10.0628C14.1247 9.2503 13.1601 8.60578 12.0985 8.16605C11.0369 7.72633 9.89907 7.5 8.75 7.5ZM22.5 8.125C21.5054 8.125 20.5516 8.98102 19.8483 10.5048C19.1451 12.0285 18.75 14.0951 18.75 16.25C18.75 18.4049 19.1451 20.4715 19.8483 21.9952C20.5516 23.519 21.5054 24.375 22.5 24.375C23.4946 24.375 24.4484 23.519 25.1517 21.9952C25.8549 20.4715 26.25 18.4049 26.25 16.25C26.25 14.0951 25.8549 12.0285 25.1517 10.5048C24.4484 8.98102 23.4946 8.125 22.5 8.125ZM28.75 10C28.4185 10 28.1005 10.6585 27.8661 11.8306C27.6317 13.0027 27.5 14.5924 27.5 16.25C27.5 17.9076 27.6317 19.4973 27.8661 20.6694C28.1005 21.8415 28.4185 22.5 28.75 22.5C29.0815 22.5 29.3995 21.8415 29.6339 20.6694C29.8683 19.4973 30 17.9076 30 16.25C30 14.5924 29.8683 13.0027 29.6339 11.8306C29.3995 10.6585 29.0815 10 28.75 10Z" fill="currentColor"/>
    </g>
    <defs>
        <clipPath id="clip0_2507_4184">
            <rect width="30" height="30" fill="currentColor"/>
        </clipPath>
    </defs>
</svg>
