<svg width="24" height="24" viewBox="0 0 24 24" xmlns="http://www.w3.org/2000/svg">
    <path fill="#fff" d="M24 20.4c0 1.98-1.62 3.6-3.6 3.6H3.6A3.61 3.61 0 0 1 0 20.4V3.6C0 1.62 1.62 0 3.6 0h16.8C22.38 0 24 1.62 24 3.6v16.8Z"/>
    <path 
        fill="currentColor" 
        d="M18.5 8H18V7.5C18 6.83696 17.7366 6.20102 17.2678 5.73218C16.7989 5.26334 16.163 5 15.5 5H15V4.5C15 3.83696 14.7366 3.20102 14.2678 2.73218C13.7989 2.26334 13.163 2 12.5 2H6.5C5.83696 2 5.20108 2.26334 4.73224 2.73218C4.2634 3.20102 4 3.83696 4 4.5V12.5C4 13.163 4.2634 13.799 4.73224 14.2678C5.20108 14.7367 5.83696 15 6.5 15H7V15.5C7 16.163 7.2634 16.799 7.73224 17.2678C8.20108 17.7367 8.83696 18 9.5 18H10V18.5C10 19.163 10.2634 19.799 10.7322 20.2678C11.2011 20.7367 11.837 21 12.5 21H18.5C19.163 21 19.7989 20.7367 20.2678 20.2678C20.7366 19.799 21 19.163 21 18.5V10.5C21 9.83696 20.7366 9.20102 20.2678 8.73218C19.7989 8.26334 19.163 8 18.5 8ZM7 7.5V14H6.5C6.10218 14 5.72065 13.842 5.43935 13.5607C5.15804 13.2794 5 12.8978 5 12.5V4.5C5 4.10218 5.15804 3.72064 5.43935 3.43933C5.72065 3.15803 6.10218 3 6.5 3H12.5C12.8978 3 13.2793 3.15803 13.5607 3.43933C13.842 3.72064 14 4.10218 14 4.5V5H9.5C8.83696 5 8.20108 5.26334 7.73224 5.73218C7.2634 6.20102 7 6.83696 7 7.5ZM10 10.5V17H9.5C9.10218 17 8.72065 16.842 8.43935 16.5607C8.15804 16.2794 8 15.8978 8 15.5V7.5C8 7.10218 8.15804 6.72064 8.43935 6.43933C8.72065 6.15803 9.10218 6 9.5 6H15.5C15.8978 6 16.2793 6.15803 16.5607 6.43933C16.842 6.72064 17 7.10218 17 7.5V8H12.5C11.837 8 11.2011 8.26334 10.7322 8.73218C10.2634 9.20102 10 9.83696 10 10.5ZM20 18.5C20 18.8978 19.842 19.2794 19.5607 19.5607C19.2793 19.842 18.8978 20 18.5 20H12.5C12.1022 20 11.7207 19.842 11.4393 19.5607C11.158 19.2794 11 18.8978 11 18.5V10.5C11 10.1022 11.158 9.72064 11.4393 9.43933C11.7207 9.15803 12.1022 9 12.5 9H18.5C18.8978 9 19.2793 9.15803 19.5607 9.43933C19.842 9.72064 20 10.1022 20 10.5V18.5ZM13 13H18V12H13V13ZM13 15H18V14H13V15Z">
    </path>
</svg>