<svg width="85" height="30" viewBox="0 0 85 30" fill="none"
    xmlns="http://www.w3.org/2000/svg">
    <rect x="0.5" y="0.5" width="84" height="29" rx="2.5" fill="white" style="fill:white;fill-opacity:1;"/>
    <rect x="0.5" y="0.5" width="84" height="29" rx="2.5" stroke="#495CEF" style="stroke:#495CEF;stroke:color(display-p3 0.2863 0.3608 0.9373);stroke-opacity:1;"/>
    <path fill-rule="evenodd" clip-rule="evenodd" d="M12.8747 11.4505L18.7319 14.4666C19.2016 14.6874 19.2016 15.2695 18.7319 15.5335L12.8747 18.5497C12.5801 18.7014 12.0007 18.5802 12 18.0162V11.9839C12 11.6525 12.3527 11.2069 12.8747 11.4505ZM13 17.3603L17.5835 15.0001L13 12.6398V17.3603Z" fill="#495CEF" style="fill:#495CEF;fill:color(display-p3 0.2863 0.3608 0.9373);fill-opacity:1;"/>
    <path d="M29.688 20H28.068V11.42H31.368C31.944 11.42 32.448 11.532 32.88 11.756C33.32 11.972 33.66 12.276 33.9 12.668C34.148 13.06 34.272 13.516 34.272 14.036C34.272 14.556 34.148 15.016 33.9 15.416C33.66 15.808 33.32 16.116 32.88 16.34C32.448 16.556 31.944 16.664 31.368 16.664H29.688V20ZM31.368 12.788H29.688V15.296H31.368C31.76 15.296 32.068 15.184 32.292 14.96C32.524 14.736 32.64 14.428 32.64 14.036C32.64 13.652 32.524 13.348 32.292 13.124C32.068 12.9 31.76 12.788 31.368 12.788ZM39.3404 13.856V15.308H39.0164C38.4724 15.308 38.0404 15.48 37.7204 15.824C37.4084 16.16 37.2524 16.696 37.2524 17.432V20H35.6684V13.964H37.2404V15.104C37.3684 14.784 37.5324 14.536 37.7324 14.36C37.9404 14.176 38.1604 14.048 38.3924 13.976C38.6324 13.896 38.8644 13.856 39.0884 13.856H39.3404ZM45.0719 18.164L45.8999 19.136C45.5799 19.48 45.1999 19.744 44.7599 19.928C44.3279 20.104 43.8599 20.192 43.3559 20.192C42.6999 20.192 42.1239 20.056 41.6279 19.784C41.1319 19.512 40.7439 19.136 40.4639 18.656C40.1839 18.168 40.0439 17.612 40.0439 16.988C40.0439 16.372 40.1759 15.824 40.4399 15.344C40.7039 14.856 41.0639 14.472 41.5199 14.192C41.9759 13.912 42.4959 13.772 43.0799 13.772C43.6319 13.772 44.1199 13.908 44.5439 14.18C44.9759 14.452 45.3119 14.828 45.5519 15.308C45.7999 15.78 45.9239 16.32 45.9239 16.928V17.456H41.6879C41.7679 17.92 41.9519 18.284 42.2399 18.548C42.5359 18.812 42.9279 18.944 43.4159 18.944C44.0959 18.944 44.6479 18.684 45.0719 18.164ZM43.0559 15.008C42.6799 15.008 42.3719 15.136 42.1319 15.392C41.8999 15.648 41.7519 16 41.6879 16.448H44.3519C44.3039 15.984 44.1679 15.628 43.9439 15.38C43.7199 15.132 43.4239 15.008 43.0559 15.008ZM50.3616 20H48.8256L46.4016 13.964H48.0456L49.6296 18.464L51.2136 13.964H52.7736L50.3616 20ZM55.6902 11.996C55.6902 12.252 55.5982 12.472 55.4142 12.656C55.2302 12.84 54.9982 12.932 54.7182 12.932C54.4382 12.932 54.2062 12.84 54.0222 12.656C53.8382 12.472 53.7462 12.252 53.7462 11.996C53.7462 11.732 53.8382 11.512 54.0222 11.336C54.2062 11.152 54.4382 11.06 54.7182 11.06C54.9982 11.06 55.2302 11.152 55.4142 11.336C55.5982 11.512 55.6902 11.732 55.6902 11.996ZM55.5102 20H53.9262V13.964H55.5102V20ZM61.9352 18.164L62.7632 19.136C62.4432 19.48 62.0632 19.744 61.6232 19.928C61.1912 20.104 60.7232 20.192 60.2192 20.192C59.5632 20.192 58.9872 20.056 58.4912 19.784C57.9952 19.512 57.6072 19.136 57.3272 18.656C57.0472 18.168 56.9072 17.612 56.9072 16.988C56.9072 16.372 57.0392 15.824 57.3032 15.344C57.5672 14.856 57.9272 14.472 58.3832 14.192C58.8392 13.912 59.3592 13.772 59.9432 13.772C60.4952 13.772 60.9832 13.908 61.4072 14.18C61.8392 14.452 62.1752 14.828 62.4152 15.308C62.6632 15.78 62.7872 16.32 62.7872 16.928V17.456H58.5512C58.6312 17.92 58.8152 18.284 59.1032 18.548C59.3992 18.812 59.7912 18.944 60.2792 18.944C60.9592 18.944 61.5112 18.684 61.9352 18.164ZM59.9192 15.008C59.5432 15.008 59.2352 15.136 58.9952 15.392C58.7632 15.648 58.6152 16 58.5512 16.448H61.2152C61.1672 15.984 61.0312 15.628 60.8072 15.38C60.5832 15.132 60.2872 15.008 59.9192 15.008ZM70.7709 20H69.2109L68.0229 16.112L66.8349 20H65.2749L63.5229 13.964H65.0829L66.1269 18.284L67.3989 13.964H68.6949L69.9549 18.284L71.0109 13.964H72.5349L70.7709 20Z" fill="#495CEF" style="fill:#495CEF;fill:color(display-p3 0.2863 0.3608 0.9373);fill-opacity:1;"/>
</svg>
