<svg width="30" height="30" viewBox="0 0 30 30" fill="none"
    xmlns="http://www.w3.org/2000/svg">
    <path d="M7.09961 2.5L8.94775 9.17969V12.3828H10.5493V9.17969L12.4219 2.5H10.8081L10.1367 5.53955C9.94797 6.42705 9.82795 7.05783 9.77295 7.43408H9.72412C9.64537 6.90783 9.52535 6.27234 9.36035 5.52734L8.71338 2.5H7.09961ZM14.2896 5.02197C13.7471 5.02197 13.3098 5.12799 12.9761 5.34424C12.6423 5.55924 12.3963 5.90326 12.2388 6.37451C12.0825 6.84576 12.0044 7.46957 12.0044 8.24707V9.29688C12.0044 10.0656 12.072 10.6813 12.2095 11.145C12.347 11.6088 12.579 11.9504 12.9053 12.1704C13.2315 12.3904 13.6804 12.5 14.2529 12.5C14.8104 12.5 15.2536 12.3915 15.5786 12.1753C15.9036 11.959 16.1392 11.6198 16.2842 11.1523C16.4292 10.6848 16.5015 10.0669 16.5015 9.29688V8.24707C16.5015 7.47082 16.428 6.84934 16.2793 6.38184C16.1305 5.91559 15.8938 5.57156 15.5713 5.35156C15.2488 5.13156 14.8233 5.02197 14.2896 5.02197ZM17.3486 5.16357V10.5566C17.3486 11.2241 17.4605 11.7151 17.688 12.0288C17.9155 12.3426 18.2688 12.5 18.7476 12.5C19.4376 12.5 19.9577 12.1665 20.3027 11.499H20.3369L20.4785 12.3828H21.7505V5.16357H20.127V10.8984C20.0645 11.0322 19.9689 11.1418 19.8389 11.228C19.7089 11.3155 19.5748 11.3574 19.4336 11.3574C19.2686 11.3574 19.1508 11.2898 19.0796 11.1523C19.0083 11.0148 18.9722 10.7839 18.9722 10.4614V5.16357H17.3486ZM14.2529 6.14014C14.4804 6.14014 14.6414 6.25902 14.7314 6.49902C14.8214 6.73777 14.8657 7.11797 14.8657 7.63672V9.88525C14.8657 10.419 14.8214 10.805 14.7314 11.04C14.6414 11.275 14.4816 11.3928 14.2554 11.394C14.0279 11.394 13.8704 11.275 13.7842 11.04C13.6967 10.805 13.6548 10.419 13.6548 9.88525V7.63672C13.6548 7.11922 13.6991 6.73902 13.7891 6.49902C13.8791 6.26027 14.0329 6.14014 14.2529 6.14014ZM6.25 13.75C4.875 13.75 3.75 14.875 3.75 16.25V25C3.75 26.375 4.875 27.5 6.25 27.5H23.75C25.125 27.5 26.25 26.375 26.25 25V16.25C26.25 14.875 25.125 13.75 23.75 13.75H6.25ZM15.061 16.25H16.3818V19.4604H16.3916C16.5104 19.2279 16.6807 19.0414 16.8994 18.8989C17.1182 18.7564 17.3549 18.6865 17.6074 18.6865C17.9324 18.6865 18.1866 18.7728 18.3716 18.9453C18.5566 19.1178 18.6919 19.3965 18.7744 19.7803C18.8569 20.1653 18.8965 20.6993 18.8965 21.3818V22.3462H18.8989C18.8989 23.2549 18.7881 23.9206 18.5693 24.3481C18.3506 24.7756 18.0101 24.9902 17.5464 24.9902C17.2876 24.9902 17.0533 24.9308 16.8408 24.812C16.6283 24.6933 16.4686 24.53 16.3623 24.3237H16.333L16.1938 24.8999H15.061V16.25ZM6.85791 16.5576H10.9229V17.6636H9.56055V24.8999H8.22021V17.6636H6.85791V16.5576ZM21.3721 18.689C21.8421 18.689 22.2036 18.7753 22.4561 18.9478C22.7073 19.1203 22.8845 19.3897 22.9883 19.7534C23.0908 20.1184 23.1421 20.6221 23.1421 21.2646V22.3096H20.8472V22.6196C20.8472 23.0109 20.8576 23.3035 20.8813 23.4985C20.9051 23.6935 20.9529 23.837 21.0254 23.9258C21.0979 24.0158 21.2098 24.0601 21.3623 24.0601C21.5673 24.0601 21.7084 23.9796 21.7847 23.8208C21.8609 23.6621 21.9029 23.3986 21.9092 23.0273L23.0933 23.0957C23.0995 23.1482 23.103 23.2229 23.103 23.3154C23.103 23.8792 22.9479 24.3001 22.6392 24.5776C22.3304 24.8564 21.8968 24.9951 21.333 24.9951C20.6568 24.9951 20.1822 24.7817 19.9097 24.3579C19.6372 23.9342 19.502 23.2789 19.502 22.3901V21.3257C19.502 20.4107 19.6431 19.7425 19.9243 19.3213C20.2056 18.9 20.6896 18.689 21.3721 18.689ZM10.5127 18.8062H11.8872V23.2812C11.8872 23.5525 11.9175 23.7473 11.9775 23.8623C12.0375 23.9786 12.1354 24.0356 12.2754 24.0356C12.3941 24.0356 12.5109 23.9995 12.6196 23.9258C12.7296 23.8533 12.8076 23.76 12.8613 23.6475V18.8062H14.2358V24.8999H14.2334H13.1592L13.042 24.1528H13.0103C12.7178 24.7178 12.2805 25 11.6968 25C11.2918 25 10.9957 24.8671 10.8032 24.6021C10.6107 24.3371 10.5127 23.9219 10.5127 23.3594V18.8062ZM21.3428 19.6167C21.1965 19.6167 21.0881 19.6611 21.0181 19.7461C20.9481 19.8323 20.9014 19.9735 20.8789 20.1685C20.8552 20.3635 20.8447 20.6596 20.8447 21.0571V21.4941H21.8481V21.0571C21.8481 20.6659 21.8353 20.371 21.8091 20.1685C21.7841 19.966 21.735 19.8237 21.665 19.7412C21.595 19.6587 21.489 19.6167 21.3428 19.6167ZM16.9897 19.6606C16.8572 19.6606 16.736 19.7131 16.6235 19.8193C16.511 19.9256 16.4305 20.062 16.3843 20.2271V23.6865C16.4443 23.7928 16.5224 23.872 16.6187 23.9258C16.7149 23.9783 16.8174 24.0063 16.9312 24.0063C17.0774 24.0063 17.1916 23.9539 17.2778 23.8477C17.3641 23.7414 17.4271 23.563 17.4634 23.3105C17.4996 23.0593 17.5171 22.7094 17.5171 22.2656V21.4819C17.5171 21.0044 17.5031 20.6372 17.4731 20.3784C17.4431 20.1197 17.3895 19.933 17.3145 19.8242C17.2382 19.7155 17.1297 19.6606 16.9897 19.6606Z" fill="currentColor"/>
</svg>
